<?xml version="1.0" encoding="utf-8" standalone="no"?>
<!DOCTYPE svg PUBLIC "-//W3C//DTD SVG 1.1//EN"
  "http://www.w3.org/Graphics/SVG/1.1/DTD/svg11.dtd">
<!-- Created with matplotlib (http://matplotlib.org/) -->
<svg height="720pt" version="1.1" viewBox="0 0 720 720" width="720pt" xmlns="http://www.w3.org/2000/svg" xmlns:xlink="http://www.w3.org/1999/xlink">
 <defs>
  <style type="text/css">
*{stroke-linecap:butt;stroke-linejoin:round;stroke-miterlimit:100000;}
  </style>
 </defs>
 <g id="figure_1">
  <g id="patch_1">
   <path d="M 0 720 
L 720 720 
L 720 0 
L 0 0 
z
" style="fill:#ffffff;"/>
  </g>
  <g id="axes_1">
   <g id="patch_2">
    <path d="M 90 648 
L 648 648 
L 648 72 
L 90 72 
z
" style="fill:#ffffff;"/>
   </g>
   <g id="line2d_1">
    <path clip-path="url(#p0b69ada771)" d="M 167.831055 407.9698 
L 179.312767 405.924271 
L 190.81526 403.999029 
L 202.337273 402.194285 
L 213.877545 400.510236 
L 225.434811 398.947067 
L 237.007805 397.504949 
L 248.595259 396.184041 
L 260.195904 394.984486 
L 271.808468 393.906417 
L 283.431681 392.949951 
L 295.064268 392.115194 
L 306.704954 391.402236 
L 318.352465 390.811156 
L 330.005525 390.342018 
L 341.662857 389.994875 
L 353.323184 389.769763 
L 364.985228 389.666708 
L 376.647712 389.685721 
L 388.309358 389.826799 
L 399.968889 390.089928 
L 411.625027 390.475079 
L 423.276495 390.982209 
L 434.922017 391.611263 
L 446.560317 392.362171 
L 458.19012 393.234852 
L 469.810152 394.229211 
L 481.41914 395.345137 
L 493.015812 396.582509 
L 504.598898 397.941191 
L 516.167129 399.421035 
L 527.719236 401.021878 
L 539.253956 402.743545 
L 550.770024 404.585847 
L 562.266178 406.548583 
L 573.741159 408.631537 
" style="fill:none;stroke:#00ffff;stroke-dasharray:6.000000,6.000000;stroke-dashoffset:0.0;"/>
   </g>
   <g id="line2d_2">
    <path clip-path="url(#p0b69ada771)" d="M 154.92048 337.635441 
L 167.139063 335.458635 
L 179.37976 333.409835 
L 191.64123 331.489266 
L 203.922131 329.697139 
L 216.221117 328.033649 
L 228.53684 326.49898 
L 240.867951 325.093298 
L 253.213099 323.816759 
L 265.570932 322.669502 
L 277.940097 321.651652 
L 290.319237 320.763321 
L 302.706997 320.004608 
L 315.102019 319.375593 
L 327.502947 318.876347 
L 339.90842 318.506925 
L 352.317081 318.267366 
L 364.727569 318.157697 
L 377.138525 318.17793 
L 389.548589 318.328063 
L 401.956403 318.608079 
L 414.360606 319.017948 
L 426.759839 319.557624 
L 439.152745 320.227049 
L 451.537965 321.026149 
L 463.914143 321.954837 
L 476.279923 323.013011 
L 488.63395 324.200555 
L 500.974871 325.517339 
L 513.301333 326.963218 
L 525.611987 328.538035 
L 537.905483 330.241617 
L 550.180476 332.073777 
L 562.435619 334.034314 
L 574.669571 336.123014 
L 586.880991 338.339647 
" style="fill:none;stroke:#ff00ff;stroke-dasharray:6.000000,6.000000;stroke-dashoffset:0.0;"/>
   </g>
   <g id="line2d_3">
    <path clip-path="url(#p0b69ada771)" d="M 154.92048 337.635441 
L 167.139063 335.458635 
L 179.37976 333.409835 
L 191.64123 331.489266 
L 203.922131 329.697139 
L 216.221117 328.033649 
L 228.53684 326.49898 
L 240.867951 325.093298 
L 253.213099 323.816759 
L 265.570932 322.669502 
L 277.940097 321.651652 
L 290.319237 320.763321 
L 302.706997 320.004608 
L 315.102019 319.375593 
L 327.502947 318.876347 
L 339.90842 318.506925 
L 352.317081 318.267366 
L 364.727569 318.157697 
L 377.138525 318.17793 
L 389.548589 318.328063 
L 401.956403 318.608079 
L 414.360606 319.017948 
L 426.759839 319.557624 
L 439.152745 320.227049 
L 451.537965 321.026149 
L 463.914143 321.954837 
L 476.279923 323.013011 
L 488.63395 324.200555 
L 500.974871 325.517339 
L 513.301333 326.963218 
L 525.611987 328.538035 
L 537.905483 330.241617 
L 550.180476 332.073777 
L 562.435619 334.034314 
L 574.669571 336.123014 
L 586.880991 338.339647 
" style="fill:none;stroke:#ff0000;stroke-dasharray:6.000000,6.000000;stroke-dashoffset:0.0;"/>
   </g>
   <g id="line2d_4">
    <path clip-path="url(#p0b69ada771)" d="M 129.734655 200.427846 
L 143.390717 197.994944 
L 157.071496 195.705109 
L 170.775493 193.558591 
L 184.501205 191.555626 
L 198.24713 189.696431 
L 212.011762 187.981212 
L 225.793592 186.410157 
L 239.591111 184.983436 
L 253.402807 183.701208 
L 267.227167 182.563611 
L 281.062677 181.570771 
L 294.90782 180.722797 
L 308.761081 180.019781 
L 322.62094 179.4618 
L 336.485881 179.048916 
L 350.354384 178.781174 
L 364.22493 178.658603 
L 378.095998 178.681216 
L 391.966071 178.849012 
L 405.833627 179.161971 
L 419.697148 179.620059 
L 433.555115 180.223227 
L 447.406009 180.971408 
L 461.248314 181.86452 
L 475.080513 182.902465 
L 488.901091 184.08513 
L 502.708533 185.412385 
L 516.501326 186.884085 
L 530.277961 188.500068 
L 544.036927 190.260157 
L 557.776717 192.16416 
L 571.495826 194.211868 
L 585.192751 196.403057 
L 598.865991 198.737486 
L 612.514048 201.2149 
" style="fill:none;stroke:#a52a2a;stroke-dasharray:6.000000,6.000000;stroke-dashoffset:0.0;"/>
   </g>
   <g id="line2d_5">
    <path clip-path="url(#p0b69ada771)" d="M 185.143471 502.284555 
L 195.637077 500.415063 
L 206.149676 498.655505 
L 216.680115 497.006075 
L 227.227242 495.466954 
L 237.7899 494.03831 
L 248.366933 492.7203 
L 258.957181 491.513068 
L 269.559485 490.416746 
L 280.172683 489.431454 
L 290.795613 488.557301 
L 301.427109 487.794382 
L 312.066009 487.142781 
L 322.711146 486.602568 
L 333.361354 486.173804 
L 344.015467 485.856536 
L 354.672316 485.650797 
L 365.330735 485.55661 
L 375.989557 485.573987 
L 386.647612 485.702925 
L 397.303734 485.943409 
L 407.956756 486.295414 
L 418.605509 486.758901 
L 429.248828 487.333819 
L 439.885547 488.020105 
L 450.5145 488.817684 
L 461.134522 489.726468 
L 471.744451 490.746359 
L 482.343124 491.877244 
L 492.92938 493.118999 
L 503.502059 494.471489 
L 514.060003 495.934565 
L 524.602056 497.508067 
L 535.127061 499.191822 
L 545.633867 500.985647 
L 556.121321 502.889344 
" style="fill:none;stroke:#808080;stroke-dasharray:6.000000,6.000000;stroke-dashoffset:0.0;"/>
   </g>
   <g id="line2d_6">
    <path clip-path="url(#p0b69ada771)" d="M 556.121321 502.889344 
L 552.856529 502.284555 
L 549.589781 501.690414 
L 546.321114 501.106928 
L 543.050562 500.534102 
L 539.778159 499.971943 
L 522.966706 494.145936 
L 509.894435 484.387619 
L 500.827673 473.038147 
L 494.776748 461.228654 
L 490.82453 449.174451 
L 488.417128 436.768448 
L 487.270595 423.85601 
L 487.257182 410.314224 
L 488.3339 396.063002 
L 488.37662 395.574268 
L 488.476678 393.883082 
L 488.555012 390.986445 
L 488.532473 386.885257 
L 488.329985 381.58432 
L 487.868724 375.092329 
L 487.070286 367.421862 
L 485.856855 358.58936 
L 484.151377 348.615099 
L 481.87772 337.523159 
L 478.960849 325.341382 
L 475.326984 312.101323 
L 470.903768 297.838201 
L 465.620424 282.590834 
L 459.407913 266.401573 
L 452.199092 249.316229 
L 443.928865 231.383992 
L 434.534331 212.657346 
L 423.95493 193.191974 
L 417.897084 185.796481 
L 409.698276 180.880144 
L 400.321105 179.020175 
L 394.057724 178.886916 
L 387.793783 178.783267 
L 381.529422 178.70923 
L 375.264781 178.664808 
L 362.735219 178.664808 
L 356.470578 178.70923 
L 350.206217 178.783267 
L 343.942276 178.886916 
L 337.678895 179.020175 
L 328.301724 180.880144 
L 320.102916 185.796481 
L 314.04507 193.191974 
L 303.465669 212.657346 
L 294.071135 231.383992 
L 285.800908 249.316229 
L 278.592087 266.401573 
L 272.379576 282.590834 
L 267.096232 297.838201 
L 262.673016 312.101323 
L 259.039151 325.341382 
L 256.12228 337.523159 
L 253.848623 348.615099 
L 252.143145 358.58936 
L 250.929714 367.421862 
L 250.131276 375.092329 
L 249.670015 381.58432 
L 249.467527 386.885257 
L 249.444988 390.986445 
L 249.523322 393.883082 
L 249.62338 395.574268 
L 249.6661 396.063002 
L 250.742818 410.314224 
L 250.729405 423.85601 
L 249.582872 436.768448 
L 247.17547 449.174451 
L 243.223252 461.228654 
L 237.172327 473.038147 
L 228.105565 484.387619 
L 215.033294 494.145936 
L 198.221841 499.971943 
L 194.949438 500.534102 
L 191.678886 501.106928 
L 188.410219 501.690414 
L 185.143471 502.284555 
" style="fill:none;stroke:#000000;stroke-linecap:square;"/>
   </g>
   <g id="line2d_7">
    <defs>
     <path d="M 0 1.5 
C 0.397805 1.5 0.77937 1.341951 1.06066 1.06066 
C 1.341951 0.77937 1.5 0.397805 1.5 0 
C 1.5 -0.397805 1.341951 -0.77937 1.06066 -1.06066 
C 0.77937 -1.341951 0.397805 -1.5 0 -1.5 
C -0.397805 -1.5 -0.77937 -1.341951 -1.06066 -1.06066 
C -1.341951 -0.77937 -1.5 -0.397805 -1.5 0 
C -1.5 0.397805 -1.341951 0.77937 -1.06066 1.06066 
C -0.77937 1.341951 -0.397805 1.5 0 1.5 
z
" id="m7d2ffd2bdf" style="stroke:#0000ff;stroke-width:0.5;"/>
    </defs>
    <g clip-path="url(#p0b69ada771)">
     <use style="fill:#0000ff;stroke:#0000ff;stroke-width:0.5;" x="556.121321469" xlink:href="#m7d2ffd2bdf" y="502.889343937"/>
     <use style="fill:#0000ff;stroke:#0000ff;stroke-width:0.5;" x="552.856528639" xlink:href="#m7d2ffd2bdf" y="502.284555143"/>
     <use style="fill:#0000ff;stroke:#0000ff;stroke-width:0.5;" x="549.589781247" xlink:href="#m7d2ffd2bdf" y="501.69041443"/>
     <use style="fill:#0000ff;stroke:#0000ff;stroke-width:0.5;" x="546.321114022" xlink:href="#m7d2ffd2bdf" y="501.106928114"/>
     <use style="fill:#0000ff;stroke:#0000ff;stroke-width:0.5;" x="543.050561713" xlink:href="#m7d2ffd2bdf" y="500.5341024"/>
     <use style="fill:#0000ff;stroke:#0000ff;stroke-width:0.5;" x="539.778159088" xlink:href="#m7d2ffd2bdf" y="499.971943375"/>
     <use style="fill:#0000ff;stroke:#0000ff;stroke-width:0.5;" x="522.966706056" xlink:href="#m7d2ffd2bdf" y="494.145936258"/>
     <use style="fill:#0000ff;stroke:#0000ff;stroke-width:0.5;" x="509.894434785" xlink:href="#m7d2ffd2bdf" y="484.38761861"/>
     <use style="fill:#0000ff;stroke:#0000ff;stroke-width:0.5;" x="500.827673192" xlink:href="#m7d2ffd2bdf" y="473.038146694"/>
     <use style="fill:#0000ff;stroke:#0000ff;stroke-width:0.5;" x="494.776748204" xlink:href="#m7d2ffd2bdf" y="461.22865436"/>
     <use style="fill:#0000ff;stroke:#0000ff;stroke-width:0.5;" x="490.82452998" xlink:href="#m7d2ffd2bdf" y="449.174451321"/>
     <use style="fill:#0000ff;stroke:#0000ff;stroke-width:0.5;" x="488.417128399" xlink:href="#m7d2ffd2bdf" y="436.768447993"/>
     <use style="fill:#0000ff;stroke:#0000ff;stroke-width:0.5;" x="487.270595496" xlink:href="#m7d2ffd2bdf" y="423.85600978"/>
     <use style="fill:#0000ff;stroke:#0000ff;stroke-width:0.5;" x="487.257182434" xlink:href="#m7d2ffd2bdf" y="410.314223938"/>
     <use style="fill:#0000ff;stroke:#0000ff;stroke-width:0.5;" x="488.333900362" xlink:href="#m7d2ffd2bdf" y="396.063001871"/>
     <use style="fill:#0000ff;stroke:#0000ff;stroke-width:0.5;" x="488.3766204" xlink:href="#m7d2ffd2bdf" y="395.574268064"/>
     <use style="fill:#0000ff;stroke:#0000ff;stroke-width:0.5;" x="488.476677635" xlink:href="#m7d2ffd2bdf" y="393.883081948"/>
     <use style="fill:#0000ff;stroke:#0000ff;stroke-width:0.5;" x="488.555012407" xlink:href="#m7d2ffd2bdf" y="390.98644492"/>
     <use style="fill:#0000ff;stroke:#0000ff;stroke-width:0.5;" x="488.532472595" xlink:href="#m7d2ffd2bdf" y="386.885257393"/>
     <use style="fill:#0000ff;stroke:#0000ff;stroke-width:0.5;" x="488.329984514" xlink:href="#m7d2ffd2bdf" y="381.58432023"/>
     <use style="fill:#0000ff;stroke:#0000ff;stroke-width:0.5;" x="487.868723756" xlink:href="#m7d2ffd2bdf" y="375.092329158"/>
     <use style="fill:#0000ff;stroke:#0000ff;stroke-width:0.5;" x="487.0702857" xlink:href="#m7d2ffd2bdf" y="367.421862167"/>
     <use style="fill:#0000ff;stroke:#0000ff;stroke-width:0.5;" x="485.856855427" xlink:href="#m7d2ffd2bdf" y="358.589359913"/>
     <use style="fill:#0000ff;stroke:#0000ff;stroke-width:0.5;" x="484.151376747" xlink:href="#m7d2ffd2bdf" y="348.61509915"/>
     <use style="fill:#0000ff;stroke:#0000ff;stroke-width:0.5;" x="481.877720069" xlink:href="#m7d2ffd2bdf" y="337.523159235"/>
     <use style="fill:#0000ff;stroke:#0000ff;stroke-width:0.5;" x="478.960848851" xlink:href="#m7d2ffd2bdf" y="325.341381744"/>
     <use style="fill:#0000ff;stroke:#0000ff;stroke-width:0.5;" x="475.326984346" xlink:href="#m7d2ffd2bdf" y="312.101323272"/>
     <use style="fill:#0000ff;stroke:#0000ff;stroke-width:0.5;" x="470.903768383" xlink:href="#m7d2ffd2bdf" y="297.838201473"/>
     <use style="fill:#0000ff;stroke:#0000ff;stroke-width:0.5;" x="465.620423914" xlink:href="#m7d2ffd2bdf" y="282.590834429"/>
     <use style="fill:#0000ff;stroke:#0000ff;stroke-width:0.5;" x="459.407913073" xlink:href="#m7d2ffd2bdf" y="266.401573436"/>
     <use style="fill:#0000ff;stroke:#0000ff;stroke-width:0.5;" x="452.19909247" xlink:href="#m7d2ffd2bdf" y="249.316229302"/>
     <use style="fill:#0000ff;stroke:#0000ff;stroke-width:0.5;" x="443.928865488" xlink:href="#m7d2ffd2bdf" y="231.383992275"/>
     <use style="fill:#0000ff;stroke:#0000ff;stroke-width:0.5;" x="434.534331311" xlink:href="#m7d2ffd2bdf" y="212.657345712"/>
     <use style="fill:#0000ff;stroke:#0000ff;stroke-width:0.5;" x="423.954930458" xlink:href="#m7d2ffd2bdf" y="193.191973624"/>
     <use style="fill:#0000ff;stroke:#0000ff;stroke-width:0.5;" x="417.897083679" xlink:href="#m7d2ffd2bdf" y="185.796480965"/>
     <use style="fill:#0000ff;stroke:#0000ff;stroke-width:0.5;" x="409.698275916" xlink:href="#m7d2ffd2bdf" y="180.88014386"/>
     <use style="fill:#0000ff;stroke:#0000ff;stroke-width:0.5;" x="400.321104976" xlink:href="#m7d2ffd2bdf" y="179.020174928"/>
     <use style="fill:#0000ff;stroke:#0000ff;stroke-width:0.5;" x="394.05772394" xlink:href="#m7d2ffd2bdf" y="178.886915925"/>
     <use style="fill:#0000ff;stroke:#0000ff;stroke-width:0.5;" x="387.79378294" xlink:href="#m7d2ffd2bdf" y="178.783266945"/>
     <use style="fill:#0000ff;stroke:#0000ff;stroke-width:0.5;" x="381.529421956" xlink:href="#m7d2ffd2bdf" y="178.709230305"/>
     <use style="fill:#0000ff;stroke:#0000ff;stroke-width:0.5;" x="375.264780977" xlink:href="#m7d2ffd2bdf" y="178.664807659"/>
     <use style="fill:#0000ff;stroke:#0000ff;stroke-width:0.5;" x="362.735219023" xlink:href="#m7d2ffd2bdf" y="178.664807659"/>
     <use style="fill:#0000ff;stroke:#0000ff;stroke-width:0.5;" x="356.470578044" xlink:href="#m7d2ffd2bdf" y="178.709230305"/>
     <use style="fill:#0000ff;stroke:#0000ff;stroke-width:0.5;" x="350.20621706" xlink:href="#m7d2ffd2bdf" y="178.783266945"/>
     <use style="fill:#0000ff;stroke:#0000ff;stroke-width:0.5;" x="343.94227606" xlink:href="#m7d2ffd2bdf" y="178.886915925"/>
     <use style="fill:#0000ff;stroke:#0000ff;stroke-width:0.5;" x="337.678895024" xlink:href="#m7d2ffd2bdf" y="179.020174928"/>
     <use style="fill:#0000ff;stroke:#0000ff;stroke-width:0.5;" x="328.301724084" xlink:href="#m7d2ffd2bdf" y="180.88014386"/>
     <use style="fill:#0000ff;stroke:#0000ff;stroke-width:0.5;" x="320.102916321" xlink:href="#m7d2ffd2bdf" y="185.796480965"/>
     <use style="fill:#0000ff;stroke:#0000ff;stroke-width:0.5;" x="314.045069542" xlink:href="#m7d2ffd2bdf" y="193.191973624"/>
     <use style="fill:#0000ff;stroke:#0000ff;stroke-width:0.5;" x="303.465668689" xlink:href="#m7d2ffd2bdf" y="212.657345712"/>
     <use style="fill:#0000ff;stroke:#0000ff;stroke-width:0.5;" x="294.071134512" xlink:href="#m7d2ffd2bdf" y="231.383992275"/>
     <use style="fill:#0000ff;stroke:#0000ff;stroke-width:0.5;" x="285.80090753" xlink:href="#m7d2ffd2bdf" y="249.316229302"/>
     <use style="fill:#0000ff;stroke:#0000ff;stroke-width:0.5;" x="278.592086927" xlink:href="#m7d2ffd2bdf" y="266.401573436"/>
     <use style="fill:#0000ff;stroke:#0000ff;stroke-width:0.5;" x="272.379576086" xlink:href="#m7d2ffd2bdf" y="282.590834429"/>
     <use style="fill:#0000ff;stroke:#0000ff;stroke-width:0.5;" x="267.096231617" xlink:href="#m7d2ffd2bdf" y="297.838201473"/>
     <use style="fill:#0000ff;stroke:#0000ff;stroke-width:0.5;" x="262.673015654" xlink:href="#m7d2ffd2bdf" y="312.101323272"/>
     <use style="fill:#0000ff;stroke:#0000ff;stroke-width:0.5;" x="259.039151149" xlink:href="#m7d2ffd2bdf" y="325.341381744"/>
     <use style="fill:#0000ff;stroke:#0000ff;stroke-width:0.5;" x="256.122279931" xlink:href="#m7d2ffd2bdf" y="337.523159235"/>
     <use style="fill:#0000ff;stroke:#0000ff;stroke-width:0.5;" x="253.848623253" xlink:href="#m7d2ffd2bdf" y="348.61509915"/>
     <use style="fill:#0000ff;stroke:#0000ff;stroke-width:0.5;" x="252.143144573" xlink:href="#m7d2ffd2bdf" y="358.589359913"/>
     <use style="fill:#0000ff;stroke:#0000ff;stroke-width:0.5;" x="250.9297143" xlink:href="#m7d2ffd2bdf" y="367.421862167"/>
     <use style="fill:#0000ff;stroke:#0000ff;stroke-width:0.5;" x="250.131276244" xlink:href="#m7d2ffd2bdf" y="375.092329158"/>
     <use style="fill:#0000ff;stroke:#0000ff;stroke-width:0.5;" x="249.670015486" xlink:href="#m7d2ffd2bdf" y="381.58432023"/>
     <use style="fill:#0000ff;stroke:#0000ff;stroke-width:0.5;" x="249.467527405" xlink:href="#m7d2ffd2bdf" y="386.885257393"/>
     <use style="fill:#0000ff;stroke:#0000ff;stroke-width:0.5;" x="249.444987593" xlink:href="#m7d2ffd2bdf" y="390.98644492"/>
     <use style="fill:#0000ff;stroke:#0000ff;stroke-width:0.5;" x="249.523322365" xlink:href="#m7d2ffd2bdf" y="393.883081948"/>
     <use style="fill:#0000ff;stroke:#0000ff;stroke-width:0.5;" x="249.6233796" xlink:href="#m7d2ffd2bdf" y="395.574268064"/>
     <use style="fill:#0000ff;stroke:#0000ff;stroke-width:0.5;" x="249.666099638" xlink:href="#m7d2ffd2bdf" y="396.063001871"/>
     <use style="fill:#0000ff;stroke:#0000ff;stroke-width:0.5;" x="250.742817566" xlink:href="#m7d2ffd2bdf" y="410.314223938"/>
     <use style="fill:#0000ff;stroke:#0000ff;stroke-width:0.5;" x="250.729404504" xlink:href="#m7d2ffd2bdf" y="423.85600978"/>
     <use style="fill:#0000ff;stroke:#0000ff;stroke-width:0.5;" x="249.582871601" xlink:href="#m7d2ffd2bdf" y="436.768447993"/>
     <use style="fill:#0000ff;stroke:#0000ff;stroke-width:0.5;" x="247.17547002" xlink:href="#m7d2ffd2bdf" y="449.174451321"/>
     <use style="fill:#0000ff;stroke:#0000ff;stroke-width:0.5;" x="243.223251796" xlink:href="#m7d2ffd2bdf" y="461.22865436"/>
     <use style="fill:#0000ff;stroke:#0000ff;stroke-width:0.5;" x="237.172326808" xlink:href="#m7d2ffd2bdf" y="473.038146694"/>
     <use style="fill:#0000ff;stroke:#0000ff;stroke-width:0.5;" x="228.105565215" xlink:href="#m7d2ffd2bdf" y="484.38761861"/>
     <use style="fill:#0000ff;stroke:#0000ff;stroke-width:0.5;" x="215.033293944" xlink:href="#m7d2ffd2bdf" y="494.145936258"/>
     <use style="fill:#0000ff;stroke:#0000ff;stroke-width:0.5;" x="198.221840912" xlink:href="#m7d2ffd2bdf" y="499.971943375"/>
     <use style="fill:#0000ff;stroke:#0000ff;stroke-width:0.5;" x="194.949438287" xlink:href="#m7d2ffd2bdf" y="500.5341024"/>
     <use style="fill:#0000ff;stroke:#0000ff;stroke-width:0.5;" x="191.678885978" xlink:href="#m7d2ffd2bdf" y="501.106928114"/>
     <use style="fill:#0000ff;stroke:#0000ff;stroke-width:0.5;" x="188.410218753" xlink:href="#m7d2ffd2bdf" y="501.69041443"/>
     <use style="fill:#0000ff;stroke:#0000ff;stroke-width:0.5;" x="185.143471361" xlink:href="#m7d2ffd2bdf" y="502.284555143"/>
    </g>
   </g>
   <g id="patch_3">
    <path d="M 90 72 
L 648 72 
" style="fill:none;stroke:#000000;stroke-linecap:square;stroke-linejoin:miter;"/>
   </g>
   <g id="patch_4">
    <path d="M 648 648 
L 648 72 
" style="fill:none;stroke:#000000;stroke-linecap:square;stroke-linejoin:miter;"/>
   </g>
   <g id="patch_5">
    <path d="M 90 648 
L 648 648 
" style="fill:none;stroke:#000000;stroke-linecap:square;stroke-linejoin:miter;"/>
   </g>
   <g id="patch_6">
    <path d="M 90 648 
L 90 72 
" style="fill:none;stroke:#000000;stroke-linecap:square;stroke-linejoin:miter;"/>
   </g>
   <g id="matplotlib.axis_1">
    <g id="xtick_1">
     <g id="line2d_8">
      <path clip-path="url(#p0b69ada771)" d="M 90 648 
L 90 72 
" style="fill:none;stroke:#000000;stroke-dasharray:1.000000,3.000000;stroke-dashoffset:0.0;stroke-width:0.5;"/>
     </g>
     <g id="line2d_9">
      <defs>
       <path d="M 0 0 
L 0 -4 
" id="m5d5143b1a3" style="stroke:#000000;stroke-width:0.5;"/>
      </defs>
      <g>
       <use style="stroke:#000000;stroke-width:0.5;" x="90.0" xlink:href="#m5d5143b1a3" y="648.0"/>
      </g>
     </g>
     <g id="line2d_10">
      <defs>
       <path d="M 0 0 
L 0 4 
" id="m4649b71fe1" style="stroke:#000000;stroke-width:0.5;"/>
      </defs>
      <g>
       <use style="stroke:#000000;stroke-width:0.5;" x="90.0" xlink:href="#m4649b71fe1" y="72.0"/>
      </g>
     </g>
     <g id="text_1">
      <!-- −1.0 -->
      <defs>
       <path d="M 10.59375 35.5 
L 73.1875 35.5 
L 73.1875 27.203125 
L 10.59375 27.203125 
z
" id="BitstreamVeraSans-Roman-2212"/>
       <path d="M 31.78125 66.40625 
Q 24.171875 66.40625 20.328125 58.90625 
Q 16.5 51.421875 16.5 36.375 
Q 16.5 21.390625 20.328125 13.890625 
Q 24.171875 6.390625 31.78125 6.390625 
Q 39.453125 6.390625 43.28125 13.890625 
Q 47.125 21.390625 47.125 36.375 
Q 47.125 51.421875 43.28125 58.90625 
Q 39.453125 66.40625 31.78125 66.40625 
M 31.78125 74.21875 
Q 44.046875 74.21875 50.515625 64.515625 
Q 56.984375 54.828125 56.984375 36.375 
Q 56.984375 17.96875 50.515625 8.265625 
Q 44.046875 -1.421875 31.78125 -1.421875 
Q 19.53125 -1.421875 13.0625 8.265625 
Q 6.59375 17.96875 6.59375 36.375 
Q 6.59375 54.828125 13.0625 64.515625 
Q 19.53125 74.21875 31.78125 74.21875 
" id="BitstreamVeraSans-Roman-30"/>
       <path d="M 12.40625 8.296875 
L 28.515625 8.296875 
L 28.515625 63.921875 
L 10.984375 60.40625 
L 10.984375 69.390625 
L 28.421875 72.90625 
L 38.28125 72.90625 
L 38.28125 8.296875 
L 54.390625 8.296875 
L 54.390625 0 
L 12.40625 0 
z
" id="BitstreamVeraSans-Roman-31"/>
       <path d="M 10.6875 12.40625 
L 21 12.40625 
L 21 0 
L 10.6875 0 
z
" id="BitstreamVeraSans-Roman-2e"/>
      </defs>
      <g transform="translate(75.4303125 661.118125)scale(0.12 -0.12)">
       <use xlink:href="#BitstreamVeraSans-Roman-2212"/>
       <use x="83.7890625" xlink:href="#BitstreamVeraSans-Roman-31"/>
       <use x="147.412109375" xlink:href="#BitstreamVeraSans-Roman-2e"/>
       <use x="179.19921875" xlink:href="#BitstreamVeraSans-Roman-30"/>
      </g>
     </g>
    </g>
    <g id="xtick_2">
     <g id="line2d_11">
      <path clip-path="url(#p0b69ada771)" d="M 229.5 648 
L 229.5 72 
" style="fill:none;stroke:#000000;stroke-dasharray:1.000000,3.000000;stroke-dashoffset:0.0;stroke-width:0.5;"/>
     </g>
     <g id="line2d_12">
      <g>
       <use style="stroke:#000000;stroke-width:0.5;" x="229.5" xlink:href="#m5d5143b1a3" y="648.0"/>
      </g>
     </g>
     <g id="line2d_13">
      <g>
       <use style="stroke:#000000;stroke-width:0.5;" x="229.5" xlink:href="#m4649b71fe1" y="72.0"/>
      </g>
     </g>
     <g id="text_2">
      <!-- −0.5 -->
      <defs>
       <path d="M 10.796875 72.90625 
L 49.515625 72.90625 
L 49.515625 64.59375 
L 19.828125 64.59375 
L 19.828125 46.734375 
Q 21.96875 47.46875 24.109375 47.828125 
Q 26.265625 48.1875 28.421875 48.1875 
Q 40.625 48.1875 47.75 41.5 
Q 54.890625 34.8125 54.890625 23.390625 
Q 54.890625 11.625 47.5625 5.09375 
Q 40.234375 -1.421875 26.90625 -1.421875 
Q 22.3125 -1.421875 17.546875 -0.640625 
Q 12.796875 0.140625 7.71875 1.703125 
L 7.71875 11.625 
Q 12.109375 9.234375 16.796875 8.0625 
Q 21.484375 6.890625 26.703125 6.890625 
Q 35.15625 6.890625 40.078125 11.328125 
Q 45.015625 15.765625 45.015625 23.390625 
Q 45.015625 31 40.078125 35.4375 
Q 35.15625 39.890625 26.703125 39.890625 
Q 22.75 39.890625 18.8125 39.015625 
Q 14.890625 38.140625 10.796875 36.28125 
z
" id="BitstreamVeraSans-Roman-35"/>
      </defs>
      <g transform="translate(214.9303125 661.118125)scale(0.12 -0.12)">
       <use xlink:href="#BitstreamVeraSans-Roman-2212"/>
       <use x="83.7890625" xlink:href="#BitstreamVeraSans-Roman-30"/>
       <use x="147.412109375" xlink:href="#BitstreamVeraSans-Roman-2e"/>
       <use x="179.19921875" xlink:href="#BitstreamVeraSans-Roman-35"/>
      </g>
     </g>
    </g>
    <g id="xtick_3">
     <g id="line2d_14">
      <path clip-path="url(#p0b69ada771)" d="M 369 648 
L 369 72 
" style="fill:none;stroke:#000000;stroke-dasharray:1.000000,3.000000;stroke-dashoffset:0.0;stroke-width:0.5;"/>
     </g>
     <g id="line2d_15">
      <g>
       <use style="stroke:#000000;stroke-width:0.5;" x="369.0" xlink:href="#m5d5143b1a3" y="648.0"/>
      </g>
     </g>
     <g id="line2d_16">
      <g>
       <use style="stroke:#000000;stroke-width:0.5;" x="369.0" xlink:href="#m4649b71fe1" y="72.0"/>
      </g>
     </g>
     <g id="text_3">
      <!-- 0.0 -->
      <g transform="translate(359.458125 661.118125)scale(0.12 -0.12)">
       <use xlink:href="#BitstreamVeraSans-Roman-30"/>
       <use x="63.623046875" xlink:href="#BitstreamVeraSans-Roman-2e"/>
       <use x="95.41015625" xlink:href="#BitstreamVeraSans-Roman-30"/>
      </g>
     </g>
    </g>
    <g id="xtick_4">
     <g id="line2d_17">
      <path clip-path="url(#p0b69ada771)" d="M 508.5 648 
L 508.5 72 
" style="fill:none;stroke:#000000;stroke-dasharray:1.000000,3.000000;stroke-dashoffset:0.0;stroke-width:0.5;"/>
     </g>
     <g id="line2d_18">
      <g>
       <use style="stroke:#000000;stroke-width:0.5;" x="508.5" xlink:href="#m5d5143b1a3" y="648.0"/>
      </g>
     </g>
     <g id="line2d_19">
      <g>
       <use style="stroke:#000000;stroke-width:0.5;" x="508.5" xlink:href="#m4649b71fe1" y="72.0"/>
      </g>
     </g>
     <g id="text_4">
      <!-- 0.5 -->
      <g transform="translate(498.958125 661.118125)scale(0.12 -0.12)">
       <use xlink:href="#BitstreamVeraSans-Roman-30"/>
       <use x="63.623046875" xlink:href="#BitstreamVeraSans-Roman-2e"/>
       <use x="95.41015625" xlink:href="#BitstreamVeraSans-Roman-35"/>
      </g>
     </g>
    </g>
    <g id="xtick_5">
     <g id="line2d_20">
      <path clip-path="url(#p0b69ada771)" d="M 648 648 
L 648 72 
" style="fill:none;stroke:#000000;stroke-dasharray:1.000000,3.000000;stroke-dashoffset:0.0;stroke-width:0.5;"/>
     </g>
     <g id="line2d_21">
      <g>
       <use style="stroke:#000000;stroke-width:0.5;" x="648.0" xlink:href="#m5d5143b1a3" y="648.0"/>
      </g>
     </g>
     <g id="line2d_22">
      <g>
       <use style="stroke:#000000;stroke-width:0.5;" x="648.0" xlink:href="#m4649b71fe1" y="72.0"/>
      </g>
     </g>
     <g id="text_5">
      <!-- 1.0 -->
      <g transform="translate(638.458125 661.118125)scale(0.12 -0.12)">
       <use xlink:href="#BitstreamVeraSans-Roman-31"/>
       <use x="63.623046875" xlink:href="#BitstreamVeraSans-Roman-2e"/>
       <use x="95.41015625" xlink:href="#BitstreamVeraSans-Roman-30"/>
      </g>
     </g>
    </g>
   </g>
   <g id="matplotlib.axis_2">
    <g id="ytick_1">
     <g id="line2d_23">
      <path clip-path="url(#p0b69ada771)" d="M 90 527.4 
L 648 527.4 
" style="fill:none;stroke:#000000;stroke-dasharray:1.000000,3.000000;stroke-dashoffset:0.0;stroke-width:0.5;"/>
     </g>
     <g id="line2d_24">
      <defs>
       <path d="M 0 0 
L 4 0 
" id="mde1c7465f5" style="stroke:#000000;stroke-width:0.5;"/>
      </defs>
      <g>
       <use style="stroke:#000000;stroke-width:0.5;" x="90.0" xlink:href="#mde1c7465f5" y="527.4"/>
      </g>
     </g>
     <g id="line2d_25">
      <defs>
       <path d="M 0 0 
L -4 0 
" id="m1b8063527d" style="stroke:#000000;stroke-width:0.5;"/>
      </defs>
      <g>
       <use style="stroke:#000000;stroke-width:0.5;" x="648.0" xlink:href="#m1b8063527d" y="527.4"/>
      </g>
     </g>
     <g id="text_6">
      <!-- 3.5 -->
      <defs>
       <path d="M 40.578125 39.3125 
Q 47.65625 37.796875 51.625 33 
Q 55.609375 28.21875 55.609375 21.1875 
Q 55.609375 10.40625 48.1875 4.484375 
Q 40.765625 -1.421875 27.09375 -1.421875 
Q 22.515625 -1.421875 17.65625 -0.515625 
Q 12.796875 0.390625 7.625 2.203125 
L 7.625 11.71875 
Q 11.71875 9.328125 16.59375 8.109375 
Q 21.484375 6.890625 26.8125 6.890625 
Q 36.078125 6.890625 40.9375 10.546875 
Q 45.796875 14.203125 45.796875 21.1875 
Q 45.796875 27.640625 41.28125 31.265625 
Q 36.765625 34.90625 28.71875 34.90625 
L 20.21875 34.90625 
L 20.21875 43.015625 
L 29.109375 43.015625 
Q 36.375 43.015625 40.234375 45.921875 
Q 44.09375 48.828125 44.09375 54.296875 
Q 44.09375 59.90625 40.109375 62.90625 
Q 36.140625 65.921875 28.71875 65.921875 
Q 24.65625 65.921875 20.015625 65.03125 
Q 15.375 64.15625 9.8125 62.3125 
L 9.8125 71.09375 
Q 15.4375 72.65625 20.34375 73.4375 
Q 25.25 74.21875 29.59375 74.21875 
Q 40.828125 74.21875 47.359375 69.109375 
Q 53.90625 64.015625 53.90625 55.328125 
Q 53.90625 49.265625 50.4375 45.09375 
Q 46.96875 40.921875 40.578125 39.3125 
" id="BitstreamVeraSans-Roman-33"/>
      </defs>
      <g transform="translate(66.91625 530.71125)scale(0.12 -0.12)">
       <use xlink:href="#BitstreamVeraSans-Roman-33"/>
       <use x="63.623046875" xlink:href="#BitstreamVeraSans-Roman-2e"/>
       <use x="95.41015625" xlink:href="#BitstreamVeraSans-Roman-35"/>
      </g>
     </g>
    </g>
    <g id="ytick_2">
     <g id="line2d_26">
      <path clip-path="url(#p0b69ada771)" d="M 90 387.9 
L 648 387.9 
" style="fill:none;stroke:#000000;stroke-dasharray:1.000000,3.000000;stroke-dashoffset:0.0;stroke-width:0.5;"/>
     </g>
     <g id="line2d_27">
      <g>
       <use style="stroke:#000000;stroke-width:0.5;" x="90.0" xlink:href="#mde1c7465f5" y="387.9"/>
      </g>
     </g>
     <g id="line2d_28">
      <g>
       <use style="stroke:#000000;stroke-width:0.5;" x="648.0" xlink:href="#m1b8063527d" y="387.9"/>
      </g>
     </g>
     <g id="text_7">
      <!-- 4.0 -->
      <defs>
       <path d="M 37.796875 64.3125 
L 12.890625 25.390625 
L 37.796875 25.390625 
z
M 35.203125 72.90625 
L 47.609375 72.90625 
L 47.609375 25.390625 
L 58.015625 25.390625 
L 58.015625 17.1875 
L 47.609375 17.1875 
L 47.609375 0 
L 37.796875 0 
L 37.796875 17.1875 
L 4.890625 17.1875 
L 4.890625 26.703125 
z
" id="BitstreamVeraSans-Roman-34"/>
      </defs>
      <g transform="translate(66.91625 391.21125)scale(0.12 -0.12)">
       <use xlink:href="#BitstreamVeraSans-Roman-34"/>
       <use x="63.623046875" xlink:href="#BitstreamVeraSans-Roman-2e"/>
       <use x="95.41015625" xlink:href="#BitstreamVeraSans-Roman-30"/>
      </g>
     </g>
    </g>
    <g id="ytick_3">
     <g id="line2d_29">
      <path clip-path="url(#p0b69ada771)" d="M 90 248.4 
L 648 248.4 
" style="fill:none;stroke:#000000;stroke-dasharray:1.000000,3.000000;stroke-dashoffset:0.0;stroke-width:0.5;"/>
     </g>
     <g id="line2d_30">
      <g>
       <use style="stroke:#000000;stroke-width:0.5;" x="90.0" xlink:href="#mde1c7465f5" y="248.4"/>
      </g>
     </g>
     <g id="line2d_31">
      <g>
       <use style="stroke:#000000;stroke-width:0.5;" x="648.0" xlink:href="#m1b8063527d" y="248.4"/>
      </g>
     </g>
     <g id="text_8">
      <!-- 4.5 -->
      <g transform="translate(66.91625 251.71125)scale(0.12 -0.12)">
       <use xlink:href="#BitstreamVeraSans-Roman-34"/>
       <use x="63.623046875" xlink:href="#BitstreamVeraSans-Roman-2e"/>
       <use x="95.41015625" xlink:href="#BitstreamVeraSans-Roman-35"/>
      </g>
     </g>
    </g>
    <g id="ytick_4">
     <g id="line2d_32">
      <path clip-path="url(#p0b69ada771)" d="M 90 108.9 
L 648 108.9 
" style="fill:none;stroke:#000000;stroke-dasharray:1.000000,3.000000;stroke-dashoffset:0.0;stroke-width:0.5;"/>
     </g>
     <g id="line2d_33">
      <g>
       <use style="stroke:#000000;stroke-width:0.5;" x="90.0" xlink:href="#mde1c7465f5" y="108.9"/>
      </g>
     </g>
     <g id="line2d_34">
      <g>
       <use style="stroke:#000000;stroke-width:0.5;" x="648.0" xlink:href="#m1b8063527d" y="108.9"/>
      </g>
     </g>
     <g id="text_9">
      <!-- 5.0 -->
      <g transform="translate(66.91625 112.21125)scale(0.12 -0.12)">
       <use xlink:href="#BitstreamVeraSans-Roman-35"/>
       <use x="63.623046875" xlink:href="#BitstreamVeraSans-Roman-2e"/>
       <use x="95.41015625" xlink:href="#BitstreamVeraSans-Roman-30"/>
      </g>
     </g>
    </g>
   </g>
   <g id="text_10">
    <!-- ['Base Radius = 3.993693638340111 mm'] -->
    <defs>
     <path id="BitstreamVeraSans-Roman-20"/>
     <path d="M 8.59375 75.984375 
L 29.296875 75.984375 
L 29.296875 69 
L 17.578125 69 
L 17.578125 -6.203125 
L 29.296875 -6.203125 
L 29.296875 -13.1875 
L 8.59375 -13.1875 
z
" id="BitstreamVeraSans-Roman-5b"/>
     <path d="M 33.015625 40.375 
Q 26.375 40.375 22.484375 35.828125 
Q 18.609375 31.296875 18.609375 23.390625 
Q 18.609375 15.53125 22.484375 10.953125 
Q 26.375 6.390625 33.015625 6.390625 
Q 39.65625 6.390625 43.53125 10.953125 
Q 47.40625 15.53125 47.40625 23.390625 
Q 47.40625 31.296875 43.53125 35.828125 
Q 39.65625 40.375 33.015625 40.375 
M 52.59375 71.296875 
L 52.59375 62.3125 
Q 48.875 64.0625 45.09375 64.984375 
Q 41.3125 65.921875 37.59375 65.921875 
Q 27.828125 65.921875 22.671875 59.328125 
Q 17.53125 52.734375 16.796875 39.40625 
Q 19.671875 43.65625 24.015625 45.921875 
Q 28.375 48.1875 33.59375 48.1875 
Q 44.578125 48.1875 50.953125 41.515625 
Q 57.328125 34.859375 57.328125 23.390625 
Q 57.328125 12.15625 50.6875 5.359375 
Q 44.046875 -1.421875 33.015625 -1.421875 
Q 20.359375 -1.421875 13.671875 8.265625 
Q 6.984375 17.96875 6.984375 36.375 
Q 6.984375 53.65625 15.1875 63.9375 
Q 23.390625 74.21875 37.203125 74.21875 
Q 40.921875 74.21875 44.703125 73.484375 
Q 48.484375 72.75 52.59375 71.296875 
" id="BitstreamVeraSans-Roman-36"/>
     <path d="M 17.921875 72.90625 
L 17.921875 45.796875 
L 9.625 45.796875 
L 9.625 72.90625 
z
" id="BitstreamVeraSans-Roman-27"/>
     <path d="M 52 44.1875 
Q 55.375 50.25 60.0625 53.125 
Q 64.75 56 71.09375 56 
Q 79.640625 56 84.28125 50.015625 
Q 88.921875 44.046875 88.921875 33.015625 
L 88.921875 0 
L 79.890625 0 
L 79.890625 32.71875 
Q 79.890625 40.578125 77.09375 44.375 
Q 74.3125 48.1875 68.609375 48.1875 
Q 61.625 48.1875 57.5625 43.546875 
Q 53.515625 38.921875 53.515625 30.90625 
L 53.515625 0 
L 44.484375 0 
L 44.484375 32.71875 
Q 44.484375 40.625 41.703125 44.40625 
Q 38.921875 48.1875 33.109375 48.1875 
Q 26.21875 48.1875 22.15625 43.53125 
Q 18.109375 38.875 18.109375 30.90625 
L 18.109375 0 
L 9.078125 0 
L 9.078125 54.6875 
L 18.109375 54.6875 
L 18.109375 46.1875 
Q 21.1875 51.21875 25.484375 53.609375 
Q 29.78125 56 35.6875 56 
Q 41.65625 56 45.828125 52.96875 
Q 50 49.953125 52 44.1875 
" id="BitstreamVeraSans-Roman-6d"/>
     <path d="M 31.78125 34.625 
Q 24.75 34.625 20.71875 30.859375 
Q 16.703125 27.09375 16.703125 20.515625 
Q 16.703125 13.921875 20.71875 10.15625 
Q 24.75 6.390625 31.78125 6.390625 
Q 38.8125 6.390625 42.859375 10.171875 
Q 46.921875 13.96875 46.921875 20.515625 
Q 46.921875 27.09375 42.890625 30.859375 
Q 38.875 34.625 31.78125 34.625 
M 21.921875 38.8125 
Q 15.578125 40.375 12.03125 44.71875 
Q 8.5 49.078125 8.5 55.328125 
Q 8.5 64.0625 14.71875 69.140625 
Q 20.953125 74.21875 31.78125 74.21875 
Q 42.671875 74.21875 48.875 69.140625 
Q 55.078125 64.0625 55.078125 55.328125 
Q 55.078125 49.078125 51.53125 44.71875 
Q 48 40.375 41.703125 38.8125 
Q 48.828125 37.15625 52.796875 32.3125 
Q 56.78125 27.484375 56.78125 20.515625 
Q 56.78125 9.90625 50.3125 4.234375 
Q 43.84375 -1.421875 31.78125 -1.421875 
Q 19.734375 -1.421875 13.25 4.234375 
Q 6.78125 9.90625 6.78125 20.515625 
Q 6.78125 27.484375 10.78125 32.3125 
Q 14.796875 37.15625 21.921875 38.8125 
M 18.3125 54.390625 
Q 18.3125 48.734375 21.84375 45.5625 
Q 25.390625 42.390625 31.78125 42.390625 
Q 38.140625 42.390625 41.71875 45.5625 
Q 45.3125 48.734375 45.3125 54.390625 
Q 45.3125 60.0625 41.71875 63.234375 
Q 38.140625 66.40625 31.78125 66.40625 
Q 25.390625 66.40625 21.84375 63.234375 
Q 18.3125 60.0625 18.3125 54.390625 
" id="BitstreamVeraSans-Roman-38"/>
     <path d="M 10.984375 1.515625 
L 10.984375 10.5 
Q 14.703125 8.734375 18.5 7.8125 
Q 22.3125 6.890625 25.984375 6.890625 
Q 35.75 6.890625 40.890625 13.453125 
Q 46.046875 20.015625 46.78125 33.40625 
Q 43.953125 29.203125 39.59375 26.953125 
Q 35.25 24.703125 29.984375 24.703125 
Q 19.046875 24.703125 12.671875 31.3125 
Q 6.296875 37.9375 6.296875 49.421875 
Q 6.296875 60.640625 12.9375 67.421875 
Q 19.578125 74.21875 30.609375 74.21875 
Q 43.265625 74.21875 49.921875 64.515625 
Q 56.59375 54.828125 56.59375 36.375 
Q 56.59375 19.140625 48.40625 8.859375 
Q 40.234375 -1.421875 26.421875 -1.421875 
Q 22.703125 -1.421875 18.890625 -0.6875 
Q 15.09375 0.046875 10.984375 1.515625 
M 30.609375 32.421875 
Q 37.25 32.421875 41.125 36.953125 
Q 45.015625 41.5 45.015625 49.421875 
Q 45.015625 57.28125 41.125 61.84375 
Q 37.25 66.40625 30.609375 66.40625 
Q 23.96875 66.40625 20.09375 61.84375 
Q 16.21875 57.28125 16.21875 49.421875 
Q 16.21875 41.5 20.09375 36.953125 
Q 23.96875 32.421875 30.609375 32.421875 
" id="BitstreamVeraSans-Roman-39"/>
     <path d="M 44.390625 34.1875 
Q 47.5625 33.109375 50.5625 29.59375 
Q 53.5625 26.078125 56.59375 19.921875 
L 66.609375 0 
L 56 0 
L 46.6875 18.703125 
Q 43.0625 26.03125 39.671875 28.421875 
Q 36.28125 30.8125 30.421875 30.8125 
L 19.671875 30.8125 
L 19.671875 0 
L 9.8125 0 
L 9.8125 72.90625 
L 32.078125 72.90625 
Q 44.578125 72.90625 50.734375 67.671875 
Q 56.890625 62.453125 56.890625 51.90625 
Q 56.890625 45.015625 53.6875 40.46875 
Q 50.484375 35.9375 44.390625 34.1875 
M 19.671875 64.796875 
L 19.671875 38.921875 
L 32.078125 38.921875 
Q 39.203125 38.921875 42.84375 42.21875 
Q 46.484375 45.515625 46.484375 51.90625 
Q 46.484375 58.296875 42.84375 61.546875 
Q 39.203125 64.796875 32.078125 64.796875 
z
" id="BitstreamVeraSans-Roman-52"/>
     <path d="M 9.421875 54.6875 
L 18.40625 54.6875 
L 18.40625 0 
L 9.421875 0 
z
M 9.421875 75.984375 
L 18.40625 75.984375 
L 18.40625 64.59375 
L 9.421875 64.59375 
z
" id="BitstreamVeraSans-Roman-69"/>
     <path d="M 19.671875 34.8125 
L 19.671875 8.109375 
L 35.5 8.109375 
Q 43.453125 8.109375 47.28125 11.40625 
Q 51.125 14.703125 51.125 21.484375 
Q 51.125 28.328125 47.28125 31.5625 
Q 43.453125 34.8125 35.5 34.8125 
z
M 19.671875 64.796875 
L 19.671875 42.828125 
L 34.28125 42.828125 
Q 41.5 42.828125 45.03125 45.53125 
Q 48.578125 48.25 48.578125 53.8125 
Q 48.578125 59.328125 45.03125 62.0625 
Q 41.5 64.796875 34.28125 64.796875 
z
M 9.8125 72.90625 
L 35.015625 72.90625 
Q 46.296875 72.90625 52.390625 68.21875 
Q 58.5 63.53125 58.5 54.890625 
Q 58.5 48.1875 55.375 44.234375 
Q 52.25 40.28125 46.1875 39.3125 
Q 53.46875 37.75 57.5 32.78125 
Q 61.53125 27.828125 61.53125 20.40625 
Q 61.53125 10.640625 54.890625 5.3125 
Q 48.25 0 35.984375 0 
L 9.8125 0 
z
" id="BitstreamVeraSans-Roman-42"/>
     <path d="M 10.59375 45.40625 
L 73.1875 45.40625 
L 73.1875 37.203125 
L 10.59375 37.203125 
z
M 10.59375 25.484375 
L 73.1875 25.484375 
L 73.1875 17.1875 
L 10.59375 17.1875 
z
" id="BitstreamVeraSans-Roman-3d"/>
     <path d="M 56.203125 29.59375 
L 56.203125 25.203125 
L 14.890625 25.203125 
Q 15.484375 15.921875 20.484375 11.0625 
Q 25.484375 6.203125 34.421875 6.203125 
Q 39.59375 6.203125 44.453125 7.46875 
Q 49.3125 8.734375 54.109375 11.28125 
L 54.109375 2.78125 
Q 49.265625 0.734375 44.1875 -0.34375 
Q 39.109375 -1.421875 33.890625 -1.421875 
Q 20.796875 -1.421875 13.15625 6.1875 
Q 5.515625 13.8125 5.515625 26.8125 
Q 5.515625 40.234375 12.765625 48.109375 
Q 20.015625 56 32.328125 56 
Q 43.359375 56 49.78125 48.890625 
Q 56.203125 41.796875 56.203125 29.59375 
M 47.21875 32.234375 
Q 47.125 39.59375 43.09375 43.984375 
Q 39.0625 48.390625 32.421875 48.390625 
Q 24.90625 48.390625 20.390625 44.140625 
Q 15.875 39.890625 15.1875 32.171875 
z
" id="BitstreamVeraSans-Roman-65"/>
     <path d="M 45.40625 46.390625 
L 45.40625 75.984375 
L 54.390625 75.984375 
L 54.390625 0 
L 45.40625 0 
L 45.40625 8.203125 
Q 42.578125 3.328125 38.25 0.953125 
Q 33.9375 -1.421875 27.875 -1.421875 
Q 17.96875 -1.421875 11.734375 6.484375 
Q 5.515625 14.40625 5.515625 27.296875 
Q 5.515625 40.1875 11.734375 48.09375 
Q 17.96875 56 27.875 56 
Q 33.9375 56 38.25 53.625 
Q 42.578125 51.265625 45.40625 46.390625 
M 14.796875 27.296875 
Q 14.796875 17.390625 18.875 11.75 
Q 22.953125 6.109375 30.078125 6.109375 
Q 37.203125 6.109375 41.296875 11.75 
Q 45.40625 17.390625 45.40625 27.296875 
Q 45.40625 37.203125 41.296875 42.84375 
Q 37.203125 48.484375 30.078125 48.484375 
Q 22.953125 48.484375 18.875 42.84375 
Q 14.796875 37.203125 14.796875 27.296875 
" id="BitstreamVeraSans-Roman-64"/>
     <path d="M 30.421875 75.984375 
L 30.421875 -13.1875 
L 9.71875 -13.1875 
L 9.71875 -6.203125 
L 21.390625 -6.203125 
L 21.390625 69 
L 9.71875 69 
L 9.71875 75.984375 
z
" id="BitstreamVeraSans-Roman-5d"/>
     <path d="M 8.5 21.578125 
L 8.5 54.6875 
L 17.484375 54.6875 
L 17.484375 21.921875 
Q 17.484375 14.15625 20.5 10.265625 
Q 23.53125 6.390625 29.59375 6.390625 
Q 36.859375 6.390625 41.078125 11.03125 
Q 45.3125 15.671875 45.3125 23.6875 
L 45.3125 54.6875 
L 54.296875 54.6875 
L 54.296875 0 
L 45.3125 0 
L 45.3125 8.40625 
Q 42.046875 3.421875 37.71875 1 
Q 33.40625 -1.421875 27.6875 -1.421875 
Q 18.265625 -1.421875 13.375 4.4375 
Q 8.5 10.296875 8.5 21.578125 
" id="BitstreamVeraSans-Roman-75"/>
     <path d="M 34.28125 27.484375 
Q 23.390625 27.484375 19.1875 25 
Q 14.984375 22.515625 14.984375 16.5 
Q 14.984375 11.71875 18.140625 8.90625 
Q 21.296875 6.109375 26.703125 6.109375 
Q 34.1875 6.109375 38.703125 11.40625 
Q 43.21875 16.703125 43.21875 25.484375 
L 43.21875 27.484375 
z
M 52.203125 31.203125 
L 52.203125 0 
L 43.21875 0 
L 43.21875 8.296875 
Q 40.140625 3.328125 35.546875 0.953125 
Q 30.953125 -1.421875 24.3125 -1.421875 
Q 15.921875 -1.421875 10.953125 3.296875 
Q 6 8.015625 6 15.921875 
Q 6 25.140625 12.171875 29.828125 
Q 18.359375 34.515625 30.609375 34.515625 
L 43.21875 34.515625 
L 43.21875 35.40625 
Q 43.21875 41.609375 39.140625 45 
Q 35.0625 48.390625 27.6875 48.390625 
Q 23 48.390625 18.546875 47.265625 
Q 14.109375 46.140625 10.015625 43.890625 
L 10.015625 52.203125 
Q 14.9375 54.109375 19.578125 55.046875 
Q 24.21875 56 28.609375 56 
Q 40.484375 56 46.34375 49.84375 
Q 52.203125 43.703125 52.203125 31.203125 
" id="BitstreamVeraSans-Roman-61"/>
     <path d="M 44.28125 53.078125 
L 44.28125 44.578125 
Q 40.484375 46.53125 36.375 47.5 
Q 32.28125 48.484375 27.875 48.484375 
Q 21.1875 48.484375 17.84375 46.4375 
Q 14.5 44.390625 14.5 40.28125 
Q 14.5 37.15625 16.890625 35.375 
Q 19.28125 33.59375 26.515625 31.984375 
L 29.59375 31.296875 
Q 39.15625 29.25 43.1875 25.515625 
Q 47.21875 21.78125 47.21875 15.09375 
Q 47.21875 7.46875 41.1875 3.015625 
Q 35.15625 -1.421875 24.609375 -1.421875 
Q 20.21875 -1.421875 15.453125 -0.5625 
Q 10.6875 0.296875 5.421875 2 
L 5.421875 11.28125 
Q 10.40625 8.6875 15.234375 7.390625 
Q 20.0625 6.109375 24.8125 6.109375 
Q 31.15625 6.109375 34.5625 8.28125 
Q 37.984375 10.453125 37.984375 14.40625 
Q 37.984375 18.0625 35.515625 20.015625 
Q 33.0625 21.96875 24.703125 23.78125 
L 21.578125 24.515625 
Q 13.234375 26.265625 9.515625 29.90625 
Q 5.8125 33.546875 5.8125 39.890625 
Q 5.8125 47.609375 11.28125 51.796875 
Q 16.75 56 26.8125 56 
Q 31.78125 56 36.171875 55.265625 
Q 40.578125 54.546875 44.28125 53.078125 
" id="BitstreamVeraSans-Roman-73"/>
    </defs>
    <g style="fill:#00ffff;" transform="translate(278.66202 387.927511153)scale(0.08328 -0.08328)">
     <use xlink:href="#BitstreamVeraSans-Roman-5b"/>
     <use x="39.013671875" xlink:href="#BitstreamVeraSans-Roman-27"/>
     <use x="66.50390625" xlink:href="#BitstreamVeraSans-Roman-42"/>
     <use x="135.107421875" xlink:href="#BitstreamVeraSans-Roman-61"/>
     <use x="196.38671875" xlink:href="#BitstreamVeraSans-Roman-73"/>
     <use x="248.486328125" xlink:href="#BitstreamVeraSans-Roman-65"/>
     <use x="310.009765625" xlink:href="#BitstreamVeraSans-Roman-20"/>
     <use x="341.796875" xlink:href="#BitstreamVeraSans-Roman-52"/>
     <use x="411.248046875" xlink:href="#BitstreamVeraSans-Roman-61"/>
     <use x="472.52734375" xlink:href="#BitstreamVeraSans-Roman-64"/>
     <use x="536.00390625" xlink:href="#BitstreamVeraSans-Roman-69"/>
     <use x="563.787109375" xlink:href="#BitstreamVeraSans-Roman-75"/>
     <use x="627.166015625" xlink:href="#BitstreamVeraSans-Roman-73"/>
     <use x="679.265625" xlink:href="#BitstreamVeraSans-Roman-20"/>
     <use x="711.052734375" xlink:href="#BitstreamVeraSans-Roman-3d"/>
     <use x="794.841796875" xlink:href="#BitstreamVeraSans-Roman-20"/>
     <use x="826.62890625" xlink:href="#BitstreamVeraSans-Roman-33"/>
     <use x="890.251953125" xlink:href="#BitstreamVeraSans-Roman-2e"/>
     <use x="922.0390625" xlink:href="#BitstreamVeraSans-Roman-39"/>
     <use x="985.662109375" xlink:href="#BitstreamVeraSans-Roman-39"/>
     <use x="1049.28515625" xlink:href="#BitstreamVeraSans-Roman-33"/>
     <use x="1112.90820312" xlink:href="#BitstreamVeraSans-Roman-36"/>
     <use x="1176.53125" xlink:href="#BitstreamVeraSans-Roman-39"/>
     <use x="1240.15429688" xlink:href="#BitstreamVeraSans-Roman-33"/>
     <use x="1303.77734375" xlink:href="#BitstreamVeraSans-Roman-36"/>
     <use x="1367.40039062" xlink:href="#BitstreamVeraSans-Roman-33"/>
     <use x="1431.0234375" xlink:href="#BitstreamVeraSans-Roman-38"/>
     <use x="1494.64648438" xlink:href="#BitstreamVeraSans-Roman-33"/>
     <use x="1558.26953125" xlink:href="#BitstreamVeraSans-Roman-34"/>
     <use x="1621.89257812" xlink:href="#BitstreamVeraSans-Roman-30"/>
     <use x="1685.515625" xlink:href="#BitstreamVeraSans-Roman-31"/>
     <use x="1749.13867188" xlink:href="#BitstreamVeraSans-Roman-31"/>
     <use x="1812.76171875" xlink:href="#BitstreamVeraSans-Roman-31"/>
     <use x="1876.38476562" xlink:href="#BitstreamVeraSans-Roman-20"/>
     <use x="1908.171875" xlink:href="#BitstreamVeraSans-Roman-6d"/>
     <use x="2005.58398438" xlink:href="#BitstreamVeraSans-Roman-6d"/>
     <use x="2102.99609375" xlink:href="#BitstreamVeraSans-Roman-27"/>
     <use x="2130.48632812" xlink:href="#BitstreamVeraSans-Roman-5d"/>
    </g>
   </g>
   <g id="text_11">
    <!-- ['Pitch Radius = 4.25 mm'] -->
    <defs>
     <path d="M 19.671875 64.796875 
L 19.671875 37.40625 
L 32.078125 37.40625 
Q 38.96875 37.40625 42.71875 40.96875 
Q 46.484375 44.53125 46.484375 51.125 
Q 46.484375 57.671875 42.71875 61.234375 
Q 38.96875 64.796875 32.078125 64.796875 
z
M 9.8125 72.90625 
L 32.078125 72.90625 
Q 44.34375 72.90625 50.609375 67.359375 
Q 56.890625 61.8125 56.890625 51.125 
Q 56.890625 40.328125 50.609375 34.8125 
Q 44.34375 29.296875 32.078125 29.296875 
L 19.671875 29.296875 
L 19.671875 0 
L 9.8125 0 
z
" id="BitstreamVeraSans-Roman-50"/>
     <path d="M 19.1875 8.296875 
L 53.609375 8.296875 
L 53.609375 0 
L 7.328125 0 
L 7.328125 8.296875 
Q 12.9375 14.109375 22.625 23.890625 
Q 32.328125 33.6875 34.8125 36.53125 
Q 39.546875 41.84375 41.421875 45.53125 
Q 43.3125 49.21875 43.3125 52.78125 
Q 43.3125 58.59375 39.234375 62.25 
Q 35.15625 65.921875 28.609375 65.921875 
Q 23.96875 65.921875 18.8125 64.3125 
Q 13.671875 62.703125 7.8125 59.421875 
L 7.8125 69.390625 
Q 13.765625 71.78125 18.9375 73 
Q 24.125 74.21875 28.421875 74.21875 
Q 39.75 74.21875 46.484375 68.546875 
Q 53.21875 62.890625 53.21875 53.421875 
Q 53.21875 48.921875 51.53125 44.890625 
Q 49.859375 40.875 45.40625 35.40625 
Q 44.1875 33.984375 37.640625 27.21875 
Q 31.109375 20.453125 19.1875 8.296875 
" id="BitstreamVeraSans-Roman-32"/>
     <path d="M 18.3125 70.21875 
L 18.3125 54.6875 
L 36.8125 54.6875 
L 36.8125 47.703125 
L 18.3125 47.703125 
L 18.3125 18.015625 
Q 18.3125 11.328125 20.140625 9.421875 
Q 21.96875 7.515625 27.59375 7.515625 
L 36.8125 7.515625 
L 36.8125 0 
L 27.59375 0 
Q 17.1875 0 13.234375 3.875 
Q 9.28125 7.765625 9.28125 18.015625 
L 9.28125 47.703125 
L 2.6875 47.703125 
L 2.6875 54.6875 
L 9.28125 54.6875 
L 9.28125 70.21875 
z
" id="BitstreamVeraSans-Roman-74"/>
     <path d="M 54.890625 33.015625 
L 54.890625 0 
L 45.90625 0 
L 45.90625 32.71875 
Q 45.90625 40.484375 42.875 44.328125 
Q 39.84375 48.1875 33.796875 48.1875 
Q 26.515625 48.1875 22.3125 43.546875 
Q 18.109375 38.921875 18.109375 30.90625 
L 18.109375 0 
L 9.078125 0 
L 9.078125 75.984375 
L 18.109375 75.984375 
L 18.109375 46.1875 
Q 21.34375 51.125 25.703125 53.5625 
Q 30.078125 56 35.796875 56 
Q 45.21875 56 50.046875 50.171875 
Q 54.890625 44.34375 54.890625 33.015625 
" id="BitstreamVeraSans-Roman-68"/>
     <path d="M 48.78125 52.59375 
L 48.78125 44.1875 
Q 44.96875 46.296875 41.140625 47.34375 
Q 37.3125 48.390625 33.40625 48.390625 
Q 24.65625 48.390625 19.8125 42.84375 
Q 14.984375 37.3125 14.984375 27.296875 
Q 14.984375 17.28125 19.8125 11.734375 
Q 24.65625 6.203125 33.40625 6.203125 
Q 37.3125 6.203125 41.140625 7.25 
Q 44.96875 8.296875 48.78125 10.40625 
L 48.78125 2.09375 
Q 45.015625 0.34375 40.984375 -0.53125 
Q 36.96875 -1.421875 32.421875 -1.421875 
Q 20.0625 -1.421875 12.78125 6.34375 
Q 5.515625 14.109375 5.515625 27.296875 
Q 5.515625 40.671875 12.859375 48.328125 
Q 20.21875 56 33.015625 56 
Q 37.15625 56 41.109375 55.140625 
Q 45.0625 54.296875 48.78125 52.59375 
" id="BitstreamVeraSans-Roman-63"/>
    </defs>
    <g style="fill:#ff00ff;" transform="translate(369.0 316.41803625)scale(0.08328 -0.08328)">
     <use xlink:href="#BitstreamVeraSans-Roman-5b"/>
     <use x="39.013671875" xlink:href="#BitstreamVeraSans-Roman-27"/>
     <use x="66.50390625" xlink:href="#BitstreamVeraSans-Roman-50"/>
     <use x="126.775390625" xlink:href="#BitstreamVeraSans-Roman-69"/>
     <use x="154.55859375" xlink:href="#BitstreamVeraSans-Roman-74"/>
     <use x="193.767578125" xlink:href="#BitstreamVeraSans-Roman-63"/>
     <use x="248.748046875" xlink:href="#BitstreamVeraSans-Roman-68"/>
     <use x="312.126953125" xlink:href="#BitstreamVeraSans-Roman-20"/>
     <use x="343.9140625" xlink:href="#BitstreamVeraSans-Roman-52"/>
     <use x="413.365234375" xlink:href="#BitstreamVeraSans-Roman-61"/>
     <use x="474.64453125" xlink:href="#BitstreamVeraSans-Roman-64"/>
     <use x="538.12109375" xlink:href="#BitstreamVeraSans-Roman-69"/>
     <use x="565.904296875" xlink:href="#BitstreamVeraSans-Roman-75"/>
     <use x="629.283203125" xlink:href="#BitstreamVeraSans-Roman-73"/>
     <use x="681.3828125" xlink:href="#BitstreamVeraSans-Roman-20"/>
     <use x="713.169921875" xlink:href="#BitstreamVeraSans-Roman-3d"/>
     <use x="796.958984375" xlink:href="#BitstreamVeraSans-Roman-20"/>
     <use x="828.74609375" xlink:href="#BitstreamVeraSans-Roman-34"/>
     <use x="892.369140625" xlink:href="#BitstreamVeraSans-Roman-2e"/>
     <use x="924.15625" xlink:href="#BitstreamVeraSans-Roman-32"/>
     <use x="987.779296875" xlink:href="#BitstreamVeraSans-Roman-35"/>
     <use x="1051.40234375" xlink:href="#BitstreamVeraSans-Roman-20"/>
     <use x="1083.18945312" xlink:href="#BitstreamVeraSans-Roman-6d"/>
     <use x="1180.6015625" xlink:href="#BitstreamVeraSans-Roman-6d"/>
     <use x="1278.01367188" xlink:href="#BitstreamVeraSans-Roman-27"/>
     <use x="1305.50390625" xlink:href="#BitstreamVeraSans-Roman-5d"/>
    </g>
   </g>
   <g id="text_12">
    <!-- ['Offset Radius = 4.25 mm'] -->
    <defs>
     <path d="M 39.40625 66.21875 
Q 28.65625 66.21875 22.328125 58.203125 
Q 16.015625 50.203125 16.015625 36.375 
Q 16.015625 22.609375 22.328125 14.59375 
Q 28.65625 6.59375 39.40625 6.59375 
Q 50.140625 6.59375 56.421875 14.59375 
Q 62.703125 22.609375 62.703125 36.375 
Q 62.703125 50.203125 56.421875 58.203125 
Q 50.140625 66.21875 39.40625 66.21875 
M 39.40625 74.21875 
Q 54.734375 74.21875 63.90625 63.9375 
Q 73.09375 53.65625 73.09375 36.375 
Q 73.09375 19.140625 63.90625 8.859375 
Q 54.734375 -1.421875 39.40625 -1.421875 
Q 24.03125 -1.421875 14.8125 8.828125 
Q 5.609375 19.09375 5.609375 36.375 
Q 5.609375 53.65625 14.8125 63.9375 
Q 24.03125 74.21875 39.40625 74.21875 
" id="BitstreamVeraSans-Roman-4f"/>
     <path d="M 37.109375 75.984375 
L 37.109375 68.5 
L 28.515625 68.5 
Q 23.6875 68.5 21.796875 66.546875 
Q 19.921875 64.59375 19.921875 59.515625 
L 19.921875 54.6875 
L 34.71875 54.6875 
L 34.71875 47.703125 
L 19.921875 47.703125 
L 19.921875 0 
L 10.890625 0 
L 10.890625 47.703125 
L 2.296875 47.703125 
L 2.296875 54.6875 
L 10.890625 54.6875 
L 10.890625 58.5 
Q 10.890625 67.625 15.140625 71.796875 
Q 19.390625 75.984375 28.609375 75.984375 
z
" id="BitstreamVeraSans-Roman-66"/>
    </defs>
    <g style="fill:#ff0000;" transform="translate(252.340335 316.41803625)scale(0.08328 -0.08328)">
     <use xlink:href="#BitstreamVeraSans-Roman-5b"/>
     <use x="39.013671875" xlink:href="#BitstreamVeraSans-Roman-27"/>
     <use x="66.50390625" xlink:href="#BitstreamVeraSans-Roman-4f"/>
     <use x="145.21484375" xlink:href="#BitstreamVeraSans-Roman-66"/>
     <use x="180.419921875" xlink:href="#BitstreamVeraSans-Roman-66"/>
     <use x="215.625" xlink:href="#BitstreamVeraSans-Roman-73"/>
     <use x="267.724609375" xlink:href="#BitstreamVeraSans-Roman-65"/>
     <use x="329.248046875" xlink:href="#BitstreamVeraSans-Roman-74"/>
     <use x="368.45703125" xlink:href="#BitstreamVeraSans-Roman-20"/>
     <use x="400.244140625" xlink:href="#BitstreamVeraSans-Roman-52"/>
     <use x="469.6953125" xlink:href="#BitstreamVeraSans-Roman-61"/>
     <use x="530.974609375" xlink:href="#BitstreamVeraSans-Roman-64"/>
     <use x="594.451171875" xlink:href="#BitstreamVeraSans-Roman-69"/>
     <use x="622.234375" xlink:href="#BitstreamVeraSans-Roman-75"/>
     <use x="685.61328125" xlink:href="#BitstreamVeraSans-Roman-73"/>
     <use x="737.712890625" xlink:href="#BitstreamVeraSans-Roman-20"/>
     <use x="769.5" xlink:href="#BitstreamVeraSans-Roman-3d"/>
     <use x="853.2890625" xlink:href="#BitstreamVeraSans-Roman-20"/>
     <use x="885.076171875" xlink:href="#BitstreamVeraSans-Roman-34"/>
     <use x="948.69921875" xlink:href="#BitstreamVeraSans-Roman-2e"/>
     <use x="980.486328125" xlink:href="#BitstreamVeraSans-Roman-32"/>
     <use x="1044.109375" xlink:href="#BitstreamVeraSans-Roman-35"/>
     <use x="1107.73242188" xlink:href="#BitstreamVeraSans-Roman-20"/>
     <use x="1139.51953125" xlink:href="#BitstreamVeraSans-Roman-6d"/>
     <use x="1236.93164062" xlink:href="#BitstreamVeraSans-Roman-6d"/>
     <use x="1334.34375" xlink:href="#BitstreamVeraSans-Roman-27"/>
     <use x="1361.83398438" xlink:href="#BitstreamVeraSans-Roman-5d"/>
    </g>
   </g>
   <g id="text_13">
    <!-- ['Outter Radius = 4.75 mm'] -->
    <defs>
     <path d="M 41.109375 46.296875 
Q 39.59375 47.171875 37.8125 47.578125 
Q 36.03125 48 33.890625 48 
Q 26.265625 48 22.1875 43.046875 
Q 18.109375 38.09375 18.109375 28.8125 
L 18.109375 0 
L 9.078125 0 
L 9.078125 54.6875 
L 18.109375 54.6875 
L 18.109375 46.1875 
Q 20.953125 51.171875 25.484375 53.578125 
Q 30.03125 56 36.53125 56 
Q 37.453125 56 38.578125 55.875 
Q 39.703125 55.765625 41.0625 55.515625 
z
" id="BitstreamVeraSans-Roman-72"/>
     <path d="M 8.203125 72.90625 
L 55.078125 72.90625 
L 55.078125 68.703125 
L 28.609375 0 
L 18.3125 0 
L 43.21875 64.59375 
L 8.203125 64.59375 
z
" id="BitstreamVeraSans-Roman-37"/>
    </defs>
    <g style="fill:#a52a2a;" transform="translate(250.57584 176.91803625)scale(0.08328 -0.08328)">
     <use xlink:href="#BitstreamVeraSans-Roman-5b"/>
     <use x="39.013671875" xlink:href="#BitstreamVeraSans-Roman-27"/>
     <use x="66.50390625" xlink:href="#BitstreamVeraSans-Roman-4f"/>
     <use x="145.21484375" xlink:href="#BitstreamVeraSans-Roman-75"/>
     <use x="208.59375" xlink:href="#BitstreamVeraSans-Roman-74"/>
     <use x="247.802734375" xlink:href="#BitstreamVeraSans-Roman-74"/>
     <use x="287.01171875" xlink:href="#BitstreamVeraSans-Roman-65"/>
     <use x="348.53515625" xlink:href="#BitstreamVeraSans-Roman-72"/>
     <use x="389.6484375" xlink:href="#BitstreamVeraSans-Roman-20"/>
     <use x="421.435546875" xlink:href="#BitstreamVeraSans-Roman-52"/>
     <use x="490.88671875" xlink:href="#BitstreamVeraSans-Roman-61"/>
     <use x="552.166015625" xlink:href="#BitstreamVeraSans-Roman-64"/>
     <use x="615.642578125" xlink:href="#BitstreamVeraSans-Roman-69"/>
     <use x="643.42578125" xlink:href="#BitstreamVeraSans-Roman-75"/>
     <use x="706.8046875" xlink:href="#BitstreamVeraSans-Roman-73"/>
     <use x="758.904296875" xlink:href="#BitstreamVeraSans-Roman-20"/>
     <use x="790.69140625" xlink:href="#BitstreamVeraSans-Roman-3d"/>
     <use x="874.48046875" xlink:href="#BitstreamVeraSans-Roman-20"/>
     <use x="906.267578125" xlink:href="#BitstreamVeraSans-Roman-34"/>
     <use x="969.890625" xlink:href="#BitstreamVeraSans-Roman-2e"/>
     <use x="1001.67773438" xlink:href="#BitstreamVeraSans-Roman-37"/>
     <use x="1065.30078125" xlink:href="#BitstreamVeraSans-Roman-35"/>
     <use x="1128.92382812" xlink:href="#BitstreamVeraSans-Roman-20"/>
     <use x="1160.7109375" xlink:href="#BitstreamVeraSans-Roman-6d"/>
     <use x="1258.12304688" xlink:href="#BitstreamVeraSans-Roman-6d"/>
     <use x="1355.53515625" xlink:href="#BitstreamVeraSans-Roman-27"/>
     <use x="1383.02539062" xlink:href="#BitstreamVeraSans-Roman-5d"/>
    </g>
   </g>
   <g id="text_14">
    <!-- ['Root Radius = 3.65 mm'] -->
    <defs>
     <path d="M 30.609375 48.390625 
Q 23.390625 48.390625 19.1875 42.75 
Q 14.984375 37.109375 14.984375 27.296875 
Q 14.984375 17.484375 19.15625 11.84375 
Q 23.34375 6.203125 30.609375 6.203125 
Q 37.796875 6.203125 41.984375 11.859375 
Q 46.1875 17.53125 46.1875 27.296875 
Q 46.1875 37.015625 41.984375 42.703125 
Q 37.796875 48.390625 30.609375 48.390625 
M 30.609375 56 
Q 42.328125 56 49.015625 48.375 
Q 55.71875 40.765625 55.71875 27.296875 
Q 55.71875 13.875 49.015625 6.21875 
Q 42.328125 -1.421875 30.609375 -1.421875 
Q 18.84375 -1.421875 12.171875 6.21875 
Q 5.515625 13.875 5.515625 27.296875 
Q 5.515625 40.765625 12.171875 48.375 
Q 18.84375 56 30.609375 56 
" id="BitstreamVeraSans-Roman-6f"/>
    </defs>
    <g style="fill:#808080;" transform="translate(313.624655625 483.81803625)scale(0.08328 -0.08328)">
     <use xlink:href="#BitstreamVeraSans-Roman-5b"/>
     <use x="39.013671875" xlink:href="#BitstreamVeraSans-Roman-27"/>
     <use x="66.50390625" xlink:href="#BitstreamVeraSans-Roman-52"/>
     <use x="135.923828125" xlink:href="#BitstreamVeraSans-Roman-6f"/>
     <use x="197.10546875" xlink:href="#BitstreamVeraSans-Roman-6f"/>
     <use x="258.287109375" xlink:href="#BitstreamVeraSans-Roman-74"/>
     <use x="297.49609375" xlink:href="#BitstreamVeraSans-Roman-20"/>
     <use x="329.283203125" xlink:href="#BitstreamVeraSans-Roman-52"/>
     <use x="398.734375" xlink:href="#BitstreamVeraSans-Roman-61"/>
     <use x="460.013671875" xlink:href="#BitstreamVeraSans-Roman-64"/>
     <use x="523.490234375" xlink:href="#BitstreamVeraSans-Roman-69"/>
     <use x="551.2734375" xlink:href="#BitstreamVeraSans-Roman-75"/>
     <use x="614.65234375" xlink:href="#BitstreamVeraSans-Roman-73"/>
     <use x="666.751953125" xlink:href="#BitstreamVeraSans-Roman-20"/>
     <use x="698.5390625" xlink:href="#BitstreamVeraSans-Roman-3d"/>
     <use x="782.328125" xlink:href="#BitstreamVeraSans-Roman-20"/>
     <use x="814.115234375" xlink:href="#BitstreamVeraSans-Roman-33"/>
     <use x="877.73828125" xlink:href="#BitstreamVeraSans-Roman-2e"/>
     <use x="909.525390625" xlink:href="#BitstreamVeraSans-Roman-36"/>
     <use x="973.1484375" xlink:href="#BitstreamVeraSans-Roman-35"/>
     <use x="1036.77148438" xlink:href="#BitstreamVeraSans-Roman-20"/>
     <use x="1068.55859375" xlink:href="#BitstreamVeraSans-Roman-6d"/>
     <use x="1165.97070312" xlink:href="#BitstreamVeraSans-Roman-6d"/>
     <use x="1263.3828125" xlink:href="#BitstreamVeraSans-Roman-27"/>
     <use x="1290.87304688" xlink:href="#BitstreamVeraSans-Roman-5d"/>
    </g>
   </g>
   <g id="text_15">
    <!-- ['Offset = 0.0 mm'] -->
    <g style="fill:#ff0000;" transform="translate(288.390165 324.47797875)scale(0.08328 -0.08328)">
     <use xlink:href="#BitstreamVeraSans-Roman-5b"/>
     <use x="39.013671875" xlink:href="#BitstreamVeraSans-Roman-27"/>
     <use x="66.50390625" xlink:href="#BitstreamVeraSans-Roman-4f"/>
     <use x="145.21484375" xlink:href="#BitstreamVeraSans-Roman-66"/>
     <use x="180.419921875" xlink:href="#BitstreamVeraSans-Roman-66"/>
     <use x="215.625" xlink:href="#BitstreamVeraSans-Roman-73"/>
     <use x="267.724609375" xlink:href="#BitstreamVeraSans-Roman-65"/>
     <use x="329.248046875" xlink:href="#BitstreamVeraSans-Roman-74"/>
     <use x="368.45703125" xlink:href="#BitstreamVeraSans-Roman-20"/>
     <use x="400.244140625" xlink:href="#BitstreamVeraSans-Roman-3d"/>
     <use x="484.033203125" xlink:href="#BitstreamVeraSans-Roman-20"/>
     <use x="515.8203125" xlink:href="#BitstreamVeraSans-Roman-30"/>
     <use x="579.443359375" xlink:href="#BitstreamVeraSans-Roman-2e"/>
     <use x="611.23046875" xlink:href="#BitstreamVeraSans-Roman-30"/>
     <use x="674.853515625" xlink:href="#BitstreamVeraSans-Roman-20"/>
     <use x="706.640625" xlink:href="#BitstreamVeraSans-Roman-6d"/>
     <use x="804.052734375" xlink:href="#BitstreamVeraSans-Roman-6d"/>
     <use x="901.46484375" xlink:href="#BitstreamVeraSans-Roman-27"/>
     <use x="928.955078125" xlink:href="#BitstreamVeraSans-Roman-5d"/>
    </g>
   </g>
   <g id="text_16">
    <!-- ['Radius of Hob Edge = 0.15 mm'] -->
    <defs>
     <path d="M 9.8125 72.90625 
L 55.90625 72.90625 
L 55.90625 64.59375 
L 19.671875 64.59375 
L 19.671875 43.015625 
L 54.390625 43.015625 
L 54.390625 34.71875 
L 19.671875 34.71875 
L 19.671875 8.296875 
L 56.78125 8.296875 
L 56.78125 0 
L 9.8125 0 
z
" id="BitstreamVeraSans-Roman-45"/>
     <path d="M 48.6875 27.296875 
Q 48.6875 37.203125 44.609375 42.84375 
Q 40.53125 48.484375 33.40625 48.484375 
Q 26.265625 48.484375 22.1875 42.84375 
Q 18.109375 37.203125 18.109375 27.296875 
Q 18.109375 17.390625 22.1875 11.75 
Q 26.265625 6.109375 33.40625 6.109375 
Q 40.53125 6.109375 44.609375 11.75 
Q 48.6875 17.390625 48.6875 27.296875 
M 18.109375 46.390625 
Q 20.953125 51.265625 25.265625 53.625 
Q 29.59375 56 35.59375 56 
Q 45.5625 56 51.78125 48.09375 
Q 58.015625 40.1875 58.015625 27.296875 
Q 58.015625 14.40625 51.78125 6.484375 
Q 45.5625 -1.421875 35.59375 -1.421875 
Q 29.59375 -1.421875 25.265625 0.953125 
Q 20.953125 3.328125 18.109375 8.203125 
L 18.109375 0 
L 9.078125 0 
L 9.078125 75.984375 
L 18.109375 75.984375 
z
" id="BitstreamVeraSans-Roman-62"/>
     <path d="M 45.40625 27.984375 
Q 45.40625 37.75 41.375 43.109375 
Q 37.359375 48.484375 30.078125 48.484375 
Q 22.859375 48.484375 18.828125 43.109375 
Q 14.796875 37.75 14.796875 27.984375 
Q 14.796875 18.265625 18.828125 12.890625 
Q 22.859375 7.515625 30.078125 7.515625 
Q 37.359375 7.515625 41.375 12.890625 
Q 45.40625 18.265625 45.40625 27.984375 
M 54.390625 6.78125 
Q 54.390625 -7.171875 48.1875 -13.984375 
Q 42 -20.796875 29.203125 -20.796875 
Q 24.46875 -20.796875 20.265625 -20.09375 
Q 16.0625 -19.390625 12.109375 -17.921875 
L 12.109375 -9.1875 
Q 16.0625 -11.328125 19.921875 -12.34375 
Q 23.78125 -13.375 27.78125 -13.375 
Q 36.625 -13.375 41.015625 -8.765625 
Q 45.40625 -4.15625 45.40625 5.171875 
L 45.40625 9.625 
Q 42.625 4.78125 38.28125 2.390625 
Q 33.9375 0 27.875 0 
Q 17.828125 0 11.671875 7.65625 
Q 5.515625 15.328125 5.515625 27.984375 
Q 5.515625 40.671875 11.671875 48.328125 
Q 17.828125 56 27.875 56 
Q 33.9375 56 38.28125 53.609375 
Q 42.625 51.21875 45.40625 46.390625 
L 45.40625 54.6875 
L 54.390625 54.6875 
z
" id="BitstreamVeraSans-Roman-67"/>
     <path d="M 9.8125 72.90625 
L 19.671875 72.90625 
L 19.671875 43.015625 
L 55.515625 43.015625 
L 55.515625 72.90625 
L 65.375 72.90625 
L 65.375 0 
L 55.515625 0 
L 55.515625 34.71875 
L 19.671875 34.71875 
L 19.671875 0 
L 9.8125 0 
z
" id="BitstreamVeraSans-Roman-48"/>
    </defs>
    <g style="fill:#0000ff;" transform="translate(348.38449998 455.502430071)scale(0.08328 -0.08328)">
     <use xlink:href="#BitstreamVeraSans-Roman-5b"/>
     <use x="39.013671875" xlink:href="#BitstreamVeraSans-Roman-27"/>
     <use x="66.50390625" xlink:href="#BitstreamVeraSans-Roman-52"/>
     <use x="135.955078125" xlink:href="#BitstreamVeraSans-Roman-61"/>
     <use x="197.234375" xlink:href="#BitstreamVeraSans-Roman-64"/>
     <use x="260.7109375" xlink:href="#BitstreamVeraSans-Roman-69"/>
     <use x="288.494140625" xlink:href="#BitstreamVeraSans-Roman-75"/>
     <use x="351.873046875" xlink:href="#BitstreamVeraSans-Roman-73"/>
     <use x="403.97265625" xlink:href="#BitstreamVeraSans-Roman-20"/>
     <use x="435.759765625" xlink:href="#BitstreamVeraSans-Roman-6f"/>
     <use x="496.94140625" xlink:href="#BitstreamVeraSans-Roman-66"/>
     <use x="532.146484375" xlink:href="#BitstreamVeraSans-Roman-20"/>
     <use x="563.93359375" xlink:href="#BitstreamVeraSans-Roman-48"/>
     <use x="639.12890625" xlink:href="#BitstreamVeraSans-Roman-6f"/>
     <use x="700.310546875" xlink:href="#BitstreamVeraSans-Roman-62"/>
     <use x="763.787109375" xlink:href="#BitstreamVeraSans-Roman-20"/>
     <use x="795.57421875" xlink:href="#BitstreamVeraSans-Roman-45"/>
     <use x="858.7578125" xlink:href="#BitstreamVeraSans-Roman-64"/>
     <use x="922.234375" xlink:href="#BitstreamVeraSans-Roman-67"/>
     <use x="985.7109375" xlink:href="#BitstreamVeraSans-Roman-65"/>
     <use x="1047.234375" xlink:href="#BitstreamVeraSans-Roman-20"/>
     <use x="1079.02148438" xlink:href="#BitstreamVeraSans-Roman-3d"/>
     <use x="1162.81054688" xlink:href="#BitstreamVeraSans-Roman-20"/>
     <use x="1194.59765625" xlink:href="#BitstreamVeraSans-Roman-30"/>
     <use x="1258.22070312" xlink:href="#BitstreamVeraSans-Roman-2e"/>
     <use x="1290.0078125" xlink:href="#BitstreamVeraSans-Roman-31"/>
     <use x="1353.63085938" xlink:href="#BitstreamVeraSans-Roman-35"/>
     <use x="1417.25390625" xlink:href="#BitstreamVeraSans-Roman-20"/>
     <use x="1449.04101562" xlink:href="#BitstreamVeraSans-Roman-6d"/>
     <use x="1546.453125" xlink:href="#BitstreamVeraSans-Roman-6d"/>
     <use x="1643.86523438" xlink:href="#BitstreamVeraSans-Roman-27"/>
     <use x="1671.35546875" xlink:href="#BitstreamVeraSans-Roman-5d"/>
    </g>
   </g>
   <g id="text_17">
    <!-- ['Radius of Edge = 0.1 mm'] -->
    <g style="fill:#0000ff;" transform="translate(409.698275916 179.14818011)scale(0.08328 -0.08328)">
     <use xlink:href="#BitstreamVeraSans-Roman-5b"/>
     <use x="39.013671875" xlink:href="#BitstreamVeraSans-Roman-27"/>
     <use x="66.50390625" xlink:href="#BitstreamVeraSans-Roman-52"/>
     <use x="135.955078125" xlink:href="#BitstreamVeraSans-Roman-61"/>
     <use x="197.234375" xlink:href="#BitstreamVeraSans-Roman-64"/>
     <use x="260.7109375" xlink:href="#BitstreamVeraSans-Roman-69"/>
     <use x="288.494140625" xlink:href="#BitstreamVeraSans-Roman-75"/>
     <use x="351.873046875" xlink:href="#BitstreamVeraSans-Roman-73"/>
     <use x="403.97265625" xlink:href="#BitstreamVeraSans-Roman-20"/>
     <use x="435.759765625" xlink:href="#BitstreamVeraSans-Roman-6f"/>
     <use x="496.94140625" xlink:href="#BitstreamVeraSans-Roman-66"/>
     <use x="532.146484375" xlink:href="#BitstreamVeraSans-Roman-20"/>
     <use x="563.93359375" xlink:href="#BitstreamVeraSans-Roman-45"/>
     <use x="627.1171875" xlink:href="#BitstreamVeraSans-Roman-64"/>
     <use x="690.59375" xlink:href="#BitstreamVeraSans-Roman-67"/>
     <use x="754.0703125" xlink:href="#BitstreamVeraSans-Roman-65"/>
     <use x="815.59375" xlink:href="#BitstreamVeraSans-Roman-20"/>
     <use x="847.380859375" xlink:href="#BitstreamVeraSans-Roman-3d"/>
     <use x="931.169921875" xlink:href="#BitstreamVeraSans-Roman-20"/>
     <use x="962.95703125" xlink:href="#BitstreamVeraSans-Roman-30"/>
     <use x="1026.58007812" xlink:href="#BitstreamVeraSans-Roman-2e"/>
     <use x="1058.3671875" xlink:href="#BitstreamVeraSans-Roman-31"/>
     <use x="1121.99023438" xlink:href="#BitstreamVeraSans-Roman-20"/>
     <use x="1153.77734375" xlink:href="#BitstreamVeraSans-Roman-6d"/>
     <use x="1251.18945312" xlink:href="#BitstreamVeraSans-Roman-6d"/>
     <use x="1348.6015625" xlink:href="#BitstreamVeraSans-Roman-27"/>
     <use x="1376.09179688" xlink:href="#BitstreamVeraSans-Roman-5d"/>
    </g>
   </g>
   <g id="text_18">
    <!-- ['Backlash = 0.0 mm'] -->
    <defs>
     <path d="M 9.421875 75.984375 
L 18.40625 75.984375 
L 18.40625 0 
L 9.421875 0 
z
" id="BitstreamVeraSans-Roman-6c"/>
     <path d="M 9.078125 75.984375 
L 18.109375 75.984375 
L 18.109375 31.109375 
L 44.921875 54.6875 
L 56.390625 54.6875 
L 27.390625 29.109375 
L 57.625 0 
L 45.90625 0 
L 18.109375 26.703125 
L 18.109375 0 
L 9.078125 0 
z
" id="BitstreamVeraSans-Roman-6b"/>
    </defs>
    <g style="fill:#0000ff;" transform="translate(478.960848851 323.609417994)scale(0.08328 -0.08328)">
     <use xlink:href="#BitstreamVeraSans-Roman-5b"/>
     <use x="39.013671875" xlink:href="#BitstreamVeraSans-Roman-27"/>
     <use x="66.50390625" xlink:href="#BitstreamVeraSans-Roman-42"/>
     <use x="135.107421875" xlink:href="#BitstreamVeraSans-Roman-61"/>
     <use x="196.38671875" xlink:href="#BitstreamVeraSans-Roman-63"/>
     <use x="251.3671875" xlink:href="#BitstreamVeraSans-Roman-6b"/>
     <use x="309.27734375" xlink:href="#BitstreamVeraSans-Roman-6c"/>
     <use x="337.060546875" xlink:href="#BitstreamVeraSans-Roman-61"/>
     <use x="398.33984375" xlink:href="#BitstreamVeraSans-Roman-73"/>
     <use x="450.439453125" xlink:href="#BitstreamVeraSans-Roman-68"/>
     <use x="513.818359375" xlink:href="#BitstreamVeraSans-Roman-20"/>
     <use x="545.60546875" xlink:href="#BitstreamVeraSans-Roman-3d"/>
     <use x="629.39453125" xlink:href="#BitstreamVeraSans-Roman-20"/>
     <use x="661.181640625" xlink:href="#BitstreamVeraSans-Roman-30"/>
     <use x="724.8046875" xlink:href="#BitstreamVeraSans-Roman-2e"/>
     <use x="756.591796875" xlink:href="#BitstreamVeraSans-Roman-30"/>
     <use x="820.21484375" xlink:href="#BitstreamVeraSans-Roman-20"/>
     <use x="852.001953125" xlink:href="#BitstreamVeraSans-Roman-6d"/>
     <use x="949.4140625" xlink:href="#BitstreamVeraSans-Roman-6d"/>
     <use x="1046.82617188" xlink:href="#BitstreamVeraSans-Roman-27"/>
     <use x="1074.31640625" xlink:href="#BitstreamVeraSans-Roman-5d"/>
    </g>
   </g>
   <g id="text_19">
    <!-- ['Addendum = 0.5 mm'] -->
    <defs>
     <path d="M 54.890625 33.015625 
L 54.890625 0 
L 45.90625 0 
L 45.90625 32.71875 
Q 45.90625 40.484375 42.875 44.328125 
Q 39.84375 48.1875 33.796875 48.1875 
Q 26.515625 48.1875 22.3125 43.546875 
Q 18.109375 38.921875 18.109375 30.90625 
L 18.109375 0 
L 9.078125 0 
L 9.078125 54.6875 
L 18.109375 54.6875 
L 18.109375 46.1875 
Q 21.34375 51.125 25.703125 53.5625 
Q 30.078125 56 35.796875 56 
Q 45.21875 56 50.046875 50.171875 
Q 54.890625 44.34375 54.890625 33.015625 
" id="BitstreamVeraSans-Roman-6e"/>
     <path d="M 34.1875 63.1875 
L 20.796875 26.90625 
L 47.609375 26.90625 
z
M 28.609375 72.90625 
L 39.796875 72.90625 
L 67.578125 0 
L 57.328125 0 
L 50.6875 18.703125 
L 17.828125 18.703125 
L 11.1875 0 
L 0.78125 0 
z
" id="BitstreamVeraSans-Roman-41"/>
    </defs>
    <g transform="translate(129.734654511 206.755824483)scale(0.08328 -0.08328)">
     <use xlink:href="#BitstreamVeraSans-Roman-5b"/>
     <use x="39.013671875" xlink:href="#BitstreamVeraSans-Roman-27"/>
     <use x="66.50390625" xlink:href="#BitstreamVeraSans-Roman-41"/>
     <use x="134.896484375" xlink:href="#BitstreamVeraSans-Roman-64"/>
     <use x="198.373046875" xlink:href="#BitstreamVeraSans-Roman-64"/>
     <use x="261.849609375" xlink:href="#BitstreamVeraSans-Roman-65"/>
     <use x="323.373046875" xlink:href="#BitstreamVeraSans-Roman-6e"/>
     <use x="386.751953125" xlink:href="#BitstreamVeraSans-Roman-64"/>
     <use x="450.228515625" xlink:href="#BitstreamVeraSans-Roman-75"/>
     <use x="513.607421875" xlink:href="#BitstreamVeraSans-Roman-6d"/>
     <use x="611.01953125" xlink:href="#BitstreamVeraSans-Roman-20"/>
     <use x="642.806640625" xlink:href="#BitstreamVeraSans-Roman-3d"/>
     <use x="726.595703125" xlink:href="#BitstreamVeraSans-Roman-20"/>
     <use x="758.3828125" xlink:href="#BitstreamVeraSans-Roman-30"/>
     <use x="822.005859375" xlink:href="#BitstreamVeraSans-Roman-2e"/>
     <use x="853.79296875" xlink:href="#BitstreamVeraSans-Roman-35"/>
     <use x="917.416015625" xlink:href="#BitstreamVeraSans-Roman-20"/>
     <use x="949.203125" xlink:href="#BitstreamVeraSans-Roman-6d"/>
     <use x="1046.61523438" xlink:href="#BitstreamVeraSans-Roman-6d"/>
     <use x="1144.02734375" xlink:href="#BitstreamVeraSans-Roman-27"/>
     <use x="1171.51757812" xlink:href="#BitstreamVeraSans-Roman-5d"/>
    </g>
   </g>
   <g id="text_20">
    <!-- ['Dedendum = 0.6 mm'] -->
    <defs>
     <path d="M 19.671875 64.796875 
L 19.671875 8.109375 
L 31.59375 8.109375 
Q 46.6875 8.109375 53.6875 14.9375 
Q 60.6875 21.78125 60.6875 36.53125 
Q 60.6875 51.171875 53.6875 57.984375 
Q 46.6875 64.796875 31.59375 64.796875 
z
M 9.8125 72.90625 
L 30.078125 72.90625 
Q 51.265625 72.90625 61.171875 64.09375 
Q 71.09375 55.28125 71.09375 36.53125 
Q 71.09375 17.671875 61.125 8.828125 
Q 51.171875 0 30.078125 0 
L 9.8125 0 
z
" id="BitstreamVeraSans-Roman-44"/>
    </defs>
    <g transform="translate(185.143471361 508.612533893)scale(0.08328 -0.08328)">
     <use xlink:href="#BitstreamVeraSans-Roman-5b"/>
     <use x="39.013671875" xlink:href="#BitstreamVeraSans-Roman-27"/>
     <use x="66.50390625" xlink:href="#BitstreamVeraSans-Roman-44"/>
     <use x="143.505859375" xlink:href="#BitstreamVeraSans-Roman-65"/>
     <use x="205.029296875" xlink:href="#BitstreamVeraSans-Roman-64"/>
     <use x="268.505859375" xlink:href="#BitstreamVeraSans-Roman-65"/>
     <use x="330.029296875" xlink:href="#BitstreamVeraSans-Roman-6e"/>
     <use x="393.408203125" xlink:href="#BitstreamVeraSans-Roman-64"/>
     <use x="456.884765625" xlink:href="#BitstreamVeraSans-Roman-75"/>
     <use x="520.263671875" xlink:href="#BitstreamVeraSans-Roman-6d"/>
     <use x="617.67578125" xlink:href="#BitstreamVeraSans-Roman-20"/>
     <use x="649.462890625" xlink:href="#BitstreamVeraSans-Roman-3d"/>
     <use x="733.251953125" xlink:href="#BitstreamVeraSans-Roman-20"/>
     <use x="765.0390625" xlink:href="#BitstreamVeraSans-Roman-30"/>
     <use x="828.662109375" xlink:href="#BitstreamVeraSans-Roman-2e"/>
     <use x="860.44921875" xlink:href="#BitstreamVeraSans-Roman-36"/>
     <use x="924.072265625" xlink:href="#BitstreamVeraSans-Roman-20"/>
     <use x="955.859375" xlink:href="#BitstreamVeraSans-Roman-6d"/>
     <use x="1053.27148438" xlink:href="#BitstreamVeraSans-Roman-6d"/>
     <use x="1150.68359375" xlink:href="#BitstreamVeraSans-Roman-27"/>
     <use x="1178.17382812" xlink:href="#BitstreamVeraSans-Roman-5d"/>
    </g>
   </g>
   <g id="text_21">
    <!-- ['Tooth Height = 1.1 mm'] -->
    <defs>
     <path d="M -0.296875 72.90625 
L 61.375 72.90625 
L 61.375 64.59375 
L 35.5 64.59375 
L 35.5 0 
L 25.59375 0 
L 25.59375 64.59375 
L -0.296875 64.59375 
z
" id="BitstreamVeraSans-Roman-54"/>
    </defs>
    <g transform="translate(154.920480352 343.963419669)scale(0.08328 -0.08328)">
     <use xlink:href="#BitstreamVeraSans-Roman-5b"/>
     <use x="39.013671875" xlink:href="#BitstreamVeraSans-Roman-27"/>
     <use x="66.50390625" xlink:href="#BitstreamVeraSans-Roman-54"/>
     <use x="127.322265625" xlink:href="#BitstreamVeraSans-Roman-6f"/>
     <use x="188.50390625" xlink:href="#BitstreamVeraSans-Roman-6f"/>
     <use x="249.685546875" xlink:href="#BitstreamVeraSans-Roman-74"/>
     <use x="288.89453125" xlink:href="#BitstreamVeraSans-Roman-68"/>
     <use x="352.2734375" xlink:href="#BitstreamVeraSans-Roman-20"/>
     <use x="384.060546875" xlink:href="#BitstreamVeraSans-Roman-48"/>
     <use x="459.255859375" xlink:href="#BitstreamVeraSans-Roman-65"/>
     <use x="520.779296875" xlink:href="#BitstreamVeraSans-Roman-69"/>
     <use x="548.5625" xlink:href="#BitstreamVeraSans-Roman-67"/>
     <use x="612.0390625" xlink:href="#BitstreamVeraSans-Roman-68"/>
     <use x="675.41796875" xlink:href="#BitstreamVeraSans-Roman-74"/>
     <use x="714.626953125" xlink:href="#BitstreamVeraSans-Roman-20"/>
     <use x="746.4140625" xlink:href="#BitstreamVeraSans-Roman-3d"/>
     <use x="830.203125" xlink:href="#BitstreamVeraSans-Roman-20"/>
     <use x="861.990234375" xlink:href="#BitstreamVeraSans-Roman-31"/>
     <use x="925.61328125" xlink:href="#BitstreamVeraSans-Roman-2e"/>
     <use x="957.400390625" xlink:href="#BitstreamVeraSans-Roman-31"/>
     <use x="1021.0234375" xlink:href="#BitstreamVeraSans-Roman-20"/>
     <use x="1052.81054688" xlink:href="#BitstreamVeraSans-Roman-6d"/>
     <use x="1150.22265625" xlink:href="#BitstreamVeraSans-Roman-6d"/>
     <use x="1247.63476562" xlink:href="#BitstreamVeraSans-Roman-27"/>
     <use x="1275.125" xlink:href="#BitstreamVeraSans-Roman-5d"/>
    </g>
   </g>
   <g id="text_22">
    <!-- ['Approx Tooth Thickness = 0.8557463827991769 mm'] -->
    <defs>
     <path d="M 54.890625 54.6875 
L 35.109375 28.078125 
L 55.90625 0 
L 45.3125 0 
L 29.390625 21.484375 
L 13.484375 0 
L 2.875 0 
L 24.125 28.609375 
L 4.6875 54.6875 
L 15.28125 54.6875 
L 29.78125 35.203125 
L 44.28125 54.6875 
z
" id="BitstreamVeraSans-Roman-78"/>
     <path d="M 18.109375 8.203125 
L 18.109375 -20.796875 
L 9.078125 -20.796875 
L 9.078125 54.6875 
L 18.109375 54.6875 
L 18.109375 46.390625 
Q 20.953125 51.265625 25.265625 53.625 
Q 29.59375 56 35.59375 56 
Q 45.5625 56 51.78125 48.09375 
Q 58.015625 40.1875 58.015625 27.296875 
Q 58.015625 14.40625 51.78125 6.484375 
Q 45.5625 -1.421875 35.59375 -1.421875 
Q 29.59375 -1.421875 25.265625 0.953125 
Q 20.953125 3.328125 18.109375 8.203125 
M 48.6875 27.296875 
Q 48.6875 37.203125 44.609375 42.84375 
Q 40.53125 48.484375 33.40625 48.484375 
Q 26.265625 48.484375 22.1875 42.84375 
Q 18.109375 37.203125 18.109375 27.296875 
Q 18.109375 17.390625 22.1875 11.75 
Q 26.265625 6.109375 33.40625 6.109375 
Q 40.53125 6.109375 44.609375 11.75 
Q 48.6875 17.390625 48.6875 27.296875 
" id="BitstreamVeraSans-Roman-70"/>
    </defs>
    <g transform="translate(251.5465725 395.987453653)scale(0.08328 -0.08328)">
     <use xlink:href="#BitstreamVeraSans-Roman-5b"/>
     <use x="39.013671875" xlink:href="#BitstreamVeraSans-Roman-27"/>
     <use x="66.50390625" xlink:href="#BitstreamVeraSans-Roman-41"/>
     <use x="134.912109375" xlink:href="#BitstreamVeraSans-Roman-70"/>
     <use x="198.388671875" xlink:href="#BitstreamVeraSans-Roman-70"/>
     <use x="261.865234375" xlink:href="#BitstreamVeraSans-Roman-72"/>
     <use x="302.947265625" xlink:href="#BitstreamVeraSans-Roman-6f"/>
     <use x="364.08203125" xlink:href="#BitstreamVeraSans-Roman-78"/>
     <use x="423.26171875" xlink:href="#BitstreamVeraSans-Roman-20"/>
     <use x="455.048828125" xlink:href="#BitstreamVeraSans-Roman-54"/>
     <use x="515.8671875" xlink:href="#BitstreamVeraSans-Roman-6f"/>
     <use x="577.048828125" xlink:href="#BitstreamVeraSans-Roman-6f"/>
     <use x="638.23046875" xlink:href="#BitstreamVeraSans-Roman-74"/>
     <use x="677.439453125" xlink:href="#BitstreamVeraSans-Roman-68"/>
     <use x="740.818359375" xlink:href="#BitstreamVeraSans-Roman-20"/>
     <use x="772.60546875" xlink:href="#BitstreamVeraSans-Roman-54"/>
     <use x="833.689453125" xlink:href="#BitstreamVeraSans-Roman-68"/>
     <use x="897.068359375" xlink:href="#BitstreamVeraSans-Roman-69"/>
     <use x="924.8515625" xlink:href="#BitstreamVeraSans-Roman-63"/>
     <use x="979.83203125" xlink:href="#BitstreamVeraSans-Roman-6b"/>
     <use x="1037.7421875" xlink:href="#BitstreamVeraSans-Roman-6e"/>
     <use x="1101.12109375" xlink:href="#BitstreamVeraSans-Roman-65"/>
     <use x="1162.64453125" xlink:href="#BitstreamVeraSans-Roman-73"/>
     <use x="1214.74414062" xlink:href="#BitstreamVeraSans-Roman-73"/>
     <use x="1266.84375" xlink:href="#BitstreamVeraSans-Roman-20"/>
     <use x="1298.63085938" xlink:href="#BitstreamVeraSans-Roman-3d"/>
     <use x="1382.41992188" xlink:href="#BitstreamVeraSans-Roman-20"/>
     <use x="1414.20703125" xlink:href="#BitstreamVeraSans-Roman-30"/>
     <use x="1477.83007812" xlink:href="#BitstreamVeraSans-Roman-2e"/>
     <use x="1509.6171875" xlink:href="#BitstreamVeraSans-Roman-38"/>
     <use x="1573.24023438" xlink:href="#BitstreamVeraSans-Roman-35"/>
     <use x="1636.86328125" xlink:href="#BitstreamVeraSans-Roman-35"/>
     <use x="1700.48632812" xlink:href="#BitstreamVeraSans-Roman-37"/>
     <use x="1764.109375" xlink:href="#BitstreamVeraSans-Roman-34"/>
     <use x="1827.73242188" xlink:href="#BitstreamVeraSans-Roman-36"/>
     <use x="1891.35546875" xlink:href="#BitstreamVeraSans-Roman-33"/>
     <use x="1954.97851562" xlink:href="#BitstreamVeraSans-Roman-38"/>
     <use x="2018.6015625" xlink:href="#BitstreamVeraSans-Roman-32"/>
     <use x="2082.22460938" xlink:href="#BitstreamVeraSans-Roman-37"/>
     <use x="2145.84765625" xlink:href="#BitstreamVeraSans-Roman-39"/>
     <use x="2209.47070312" xlink:href="#BitstreamVeraSans-Roman-39"/>
     <use x="2273.09375" xlink:href="#BitstreamVeraSans-Roman-31"/>
     <use x="2336.71679688" xlink:href="#BitstreamVeraSans-Roman-37"/>
     <use x="2400.33984375" xlink:href="#BitstreamVeraSans-Roman-36"/>
     <use x="2463.96289062" xlink:href="#BitstreamVeraSans-Roman-39"/>
     <use x="2527.5859375" xlink:href="#BitstreamVeraSans-Roman-20"/>
     <use x="2559.37304688" xlink:href="#BitstreamVeraSans-Roman-6d"/>
     <use x="2656.78515625" xlink:href="#BitstreamVeraSans-Roman-6d"/>
     <use x="2754.19726562" xlink:href="#BitstreamVeraSans-Roman-27"/>
     <use x="2781.6875" xlink:href="#BitstreamVeraSans-Roman-5d"/>
    </g>
   </g>
   <g id="text_23">
    <!-- ['Approx Tooth End Thickness = 0.2917439133754296 mm'] -->
    <g transform="translate(242.309649375 184.97797875)scale(0.08328 -0.08328)">
     <use xlink:href="#BitstreamVeraSans-Roman-5b"/>
     <use x="39.013671875" xlink:href="#BitstreamVeraSans-Roman-27"/>
     <use x="66.50390625" xlink:href="#BitstreamVeraSans-Roman-41"/>
     <use x="134.912109375" xlink:href="#BitstreamVeraSans-Roman-70"/>
     <use x="198.388671875" xlink:href="#BitstreamVeraSans-Roman-70"/>
     <use x="261.865234375" xlink:href="#BitstreamVeraSans-Roman-72"/>
     <use x="302.947265625" xlink:href="#BitstreamVeraSans-Roman-6f"/>
     <use x="364.08203125" xlink:href="#BitstreamVeraSans-Roman-78"/>
     <use x="423.26171875" xlink:href="#BitstreamVeraSans-Roman-20"/>
     <use x="455.048828125" xlink:href="#BitstreamVeraSans-Roman-54"/>
     <use x="515.8671875" xlink:href="#BitstreamVeraSans-Roman-6f"/>
     <use x="577.048828125" xlink:href="#BitstreamVeraSans-Roman-6f"/>
     <use x="638.23046875" xlink:href="#BitstreamVeraSans-Roman-74"/>
     <use x="677.439453125" xlink:href="#BitstreamVeraSans-Roman-68"/>
     <use x="740.818359375" xlink:href="#BitstreamVeraSans-Roman-20"/>
     <use x="772.60546875" xlink:href="#BitstreamVeraSans-Roman-45"/>
     <use x="835.7890625" xlink:href="#BitstreamVeraSans-Roman-6e"/>
     <use x="899.16796875" xlink:href="#BitstreamVeraSans-Roman-64"/>
     <use x="962.64453125" xlink:href="#BitstreamVeraSans-Roman-20"/>
     <use x="994.431640625" xlink:href="#BitstreamVeraSans-Roman-54"/>
     <use x="1055.515625" xlink:href="#BitstreamVeraSans-Roman-68"/>
     <use x="1118.89453125" xlink:href="#BitstreamVeraSans-Roman-69"/>
     <use x="1146.67773438" xlink:href="#BitstreamVeraSans-Roman-63"/>
     <use x="1201.65820312" xlink:href="#BitstreamVeraSans-Roman-6b"/>
     <use x="1259.56835938" xlink:href="#BitstreamVeraSans-Roman-6e"/>
     <use x="1322.94726562" xlink:href="#BitstreamVeraSans-Roman-65"/>
     <use x="1384.47070312" xlink:href="#BitstreamVeraSans-Roman-73"/>
     <use x="1436.5703125" xlink:href="#BitstreamVeraSans-Roman-73"/>
     <use x="1488.66992188" xlink:href="#BitstreamVeraSans-Roman-20"/>
     <use x="1520.45703125" xlink:href="#BitstreamVeraSans-Roman-3d"/>
     <use x="1604.24609375" xlink:href="#BitstreamVeraSans-Roman-20"/>
     <use x="1636.03320312" xlink:href="#BitstreamVeraSans-Roman-30"/>
     <use x="1699.65625" xlink:href="#BitstreamVeraSans-Roman-2e"/>
     <use x="1731.44335938" xlink:href="#BitstreamVeraSans-Roman-32"/>
     <use x="1795.06640625" xlink:href="#BitstreamVeraSans-Roman-39"/>
     <use x="1858.68945312" xlink:href="#BitstreamVeraSans-Roman-31"/>
     <use x="1922.3125" xlink:href="#BitstreamVeraSans-Roman-37"/>
     <use x="1985.93554688" xlink:href="#BitstreamVeraSans-Roman-34"/>
     <use x="2049.55859375" xlink:href="#BitstreamVeraSans-Roman-33"/>
     <use x="2113.18164062" xlink:href="#BitstreamVeraSans-Roman-39"/>
     <use x="2176.8046875" xlink:href="#BitstreamVeraSans-Roman-31"/>
     <use x="2240.42773438" xlink:href="#BitstreamVeraSans-Roman-33"/>
     <use x="2304.05078125" xlink:href="#BitstreamVeraSans-Roman-33"/>
     <use x="2367.67382812" xlink:href="#BitstreamVeraSans-Roman-37"/>
     <use x="2431.296875" xlink:href="#BitstreamVeraSans-Roman-35"/>
     <use x="2494.91992188" xlink:href="#BitstreamVeraSans-Roman-34"/>
     <use x="2558.54296875" xlink:href="#BitstreamVeraSans-Roman-32"/>
     <use x="2622.16601562" xlink:href="#BitstreamVeraSans-Roman-39"/>
     <use x="2685.7890625" xlink:href="#BitstreamVeraSans-Roman-36"/>
     <use x="2749.41210938" xlink:href="#BitstreamVeraSans-Roman-20"/>
     <use x="2781.19921875" xlink:href="#BitstreamVeraSans-Roman-6d"/>
     <use x="2878.61132812" xlink:href="#BitstreamVeraSans-Roman-6d"/>
     <use x="2976.0234375" xlink:href="#BitstreamVeraSans-Roman-27"/>
     <use x="3003.51367188" xlink:href="#BitstreamVeraSans-Roman-5d"/>
    </g>
   </g>
   <g id="text_24">
    <!-- FGPG (Fine_Gear_Profile_Generator) v12  -->
    <defs>
     <path d="M 50.984375 -16.609375 
L 50.984375 -23.578125 
L -0.984375 -23.578125 
L -0.984375 -16.609375 
z
" id="BitstreamVeraSans-Roman-5f"/>
     <path d="M 8.015625 75.875 
L 15.828125 75.875 
Q 23.140625 64.359375 26.78125 53.3125 
Q 30.421875 42.28125 30.421875 31.390625 
Q 30.421875 20.453125 26.78125 9.375 
Q 23.140625 -1.703125 15.828125 -13.1875 
L 8.015625 -13.1875 
Q 14.5 -2 17.703125 9.0625 
Q 20.90625 20.125 20.90625 31.390625 
Q 20.90625 42.671875 17.703125 53.65625 
Q 14.5 64.65625 8.015625 75.875 
" id="BitstreamVeraSans-Roman-29"/>
     <path d="M 31 75.875 
Q 24.46875 64.65625 21.28125 53.65625 
Q 18.109375 42.671875 18.109375 31.390625 
Q 18.109375 20.125 21.3125 9.0625 
Q 24.515625 -2 31 -13.1875 
L 23.1875 -13.1875 
Q 15.875 -1.703125 12.234375 9.375 
Q 8.59375 20.453125 8.59375 31.390625 
Q 8.59375 42.28125 12.203125 53.3125 
Q 15.828125 64.359375 23.1875 75.875 
z
" id="BitstreamVeraSans-Roman-28"/>
     <path d="M 59.515625 10.40625 
L 59.515625 29.984375 
L 43.40625 29.984375 
L 43.40625 38.09375 
L 69.28125 38.09375 
L 69.28125 6.78125 
Q 63.578125 2.734375 56.6875 0.65625 
Q 49.8125 -1.421875 42 -1.421875 
Q 24.90625 -1.421875 15.25 8.5625 
Q 5.609375 18.5625 5.609375 36.375 
Q 5.609375 54.25 15.25 64.234375 
Q 24.90625 74.21875 42 74.21875 
Q 49.125 74.21875 55.546875 72.453125 
Q 61.96875 70.703125 67.390625 67.28125 
L 67.390625 56.78125 
Q 61.921875 61.421875 55.765625 63.765625 
Q 49.609375 66.109375 42.828125 66.109375 
Q 29.4375 66.109375 22.71875 58.640625 
Q 16.015625 51.171875 16.015625 36.375 
Q 16.015625 21.625 22.71875 14.15625 
Q 29.4375 6.6875 42.828125 6.6875 
Q 48.046875 6.6875 52.140625 7.59375 
Q 56.25 8.5 59.515625 10.40625 
" id="BitstreamVeraSans-Roman-47"/>
     <path d="M 9.8125 72.90625 
L 51.703125 72.90625 
L 51.703125 64.59375 
L 19.671875 64.59375 
L 19.671875 43.109375 
L 48.578125 43.109375 
L 48.578125 34.8125 
L 19.671875 34.8125 
L 19.671875 0 
L 9.8125 0 
z
" id="BitstreamVeraSans-Roman-46"/>
     <path d="M 2.984375 54.6875 
L 12.5 54.6875 
L 29.59375 8.796875 
L 46.6875 54.6875 
L 56.203125 54.6875 
L 35.6875 0 
L 23.484375 0 
z
" id="BitstreamVeraSans-Roman-76"/>
    </defs>
    <g transform="translate(220.914 50.87515)scale(0.144 -0.144)">
     <use xlink:href="#BitstreamVeraSans-Roman-46"/>
     <use x="57.51953125" xlink:href="#BitstreamVeraSans-Roman-47"/>
     <use x="135.009765625" xlink:href="#BitstreamVeraSans-Roman-50"/>
     <use x="195.3125" xlink:href="#BitstreamVeraSans-Roman-47"/>
     <use x="272.802734375" xlink:href="#BitstreamVeraSans-Roman-20"/>
     <use x="304.58984375" xlink:href="#BitstreamVeraSans-Roman-28"/>
     <use x="343.603515625" xlink:href="#BitstreamVeraSans-Roman-46"/>
     <use x="401.013671875" xlink:href="#BitstreamVeraSans-Roman-69"/>
     <use x="428.796875" xlink:href="#BitstreamVeraSans-Roman-6e"/>
     <use x="492.17578125" xlink:href="#BitstreamVeraSans-Roman-65"/>
     <use x="553.69921875" xlink:href="#BitstreamVeraSans-Roman-5f"/>
     <use x="603.69921875" xlink:href="#BitstreamVeraSans-Roman-47"/>
     <use x="681.189453125" xlink:href="#BitstreamVeraSans-Roman-65"/>
     <use x="742.712890625" xlink:href="#BitstreamVeraSans-Roman-61"/>
     <use x="803.9921875" xlink:href="#BitstreamVeraSans-Roman-72"/>
     <use x="845.10546875" xlink:href="#BitstreamVeraSans-Roman-5f"/>
     <use x="895.10546875" xlink:href="#BitstreamVeraSans-Roman-50"/>
     <use x="955.392578125" xlink:href="#BitstreamVeraSans-Roman-72"/>
     <use x="996.474609375" xlink:href="#BitstreamVeraSans-Roman-6f"/>
     <use x="1057.65625" xlink:href="#BitstreamVeraSans-Roman-66"/>
     <use x="1092.86132812" xlink:href="#BitstreamVeraSans-Roman-69"/>
     <use x="1120.64453125" xlink:href="#BitstreamVeraSans-Roman-6c"/>
     <use x="1148.42773438" xlink:href="#BitstreamVeraSans-Roman-65"/>
     <use x="1209.95117188" xlink:href="#BitstreamVeraSans-Roman-5f"/>
     <use x="1259.95117188" xlink:href="#BitstreamVeraSans-Roman-47"/>
     <use x="1337.44140625" xlink:href="#BitstreamVeraSans-Roman-65"/>
     <use x="1398.96484375" xlink:href="#BitstreamVeraSans-Roman-6e"/>
     <use x="1462.34375" xlink:href="#BitstreamVeraSans-Roman-65"/>
     <use x="1523.8671875" xlink:href="#BitstreamVeraSans-Roman-72"/>
     <use x="1564.98046875" xlink:href="#BitstreamVeraSans-Roman-61"/>
     <use x="1626.25976562" xlink:href="#BitstreamVeraSans-Roman-74"/>
     <use x="1665.46875" xlink:href="#BitstreamVeraSans-Roman-6f"/>
     <use x="1726.65039062" xlink:href="#BitstreamVeraSans-Roman-72"/>
     <use x="1767.76367188" xlink:href="#BitstreamVeraSans-Roman-29"/>
     <use x="1806.77734375" xlink:href="#BitstreamVeraSans-Roman-20"/>
     <use x="1838.56445312" xlink:href="#BitstreamVeraSans-Roman-76"/>
     <use x="1897.74414062" xlink:href="#BitstreamVeraSans-Roman-31"/>
     <use x="1961.3671875" xlink:href="#BitstreamVeraSans-Roman-32"/>
     <use x="2024.99023438" xlink:href="#BitstreamVeraSans-Roman-20"/>
    </g>
    <!--  by Dymaxion.Kim -->
    <defs>
     <path d="M 9.8125 72.90625 
L 19.671875 72.90625 
L 19.671875 42.09375 
L 52.390625 72.90625 
L 65.09375 72.90625 
L 28.90625 38.921875 
L 67.671875 0 
L 54.6875 0 
L 19.671875 35.109375 
L 19.671875 0 
L 9.8125 0 
z
" id="BitstreamVeraSans-Roman-4b"/>
     <path d="M 32.171875 -5.078125 
Q 28.375 -14.84375 24.75 -17.8125 
Q 21.140625 -20.796875 15.09375 -20.796875 
L 7.90625 -20.796875 
L 7.90625 -13.28125 
L 13.1875 -13.28125 
Q 16.890625 -13.28125 18.9375 -11.515625 
Q 21 -9.765625 23.484375 -3.21875 
L 25.09375 0.875 
L 2.984375 54.6875 
L 12.5 54.6875 
L 29.59375 11.921875 
L 46.6875 54.6875 
L 56.203125 54.6875 
z
" id="BitstreamVeraSans-Roman-79"/>
    </defs>
    <g transform="translate(303.1065 67.4005)scale(0.144 -0.144)">
     <use xlink:href="#BitstreamVeraSans-Roman-20"/>
     <use x="31.787109375" xlink:href="#BitstreamVeraSans-Roman-62"/>
     <use x="95.263671875" xlink:href="#BitstreamVeraSans-Roman-79"/>
     <use x="154.443359375" xlink:href="#BitstreamVeraSans-Roman-20"/>
     <use x="186.23046875" xlink:href="#BitstreamVeraSans-Roman-44"/>
     <use x="263.232421875" xlink:href="#BitstreamVeraSans-Roman-79"/>
     <use x="322.412109375" xlink:href="#BitstreamVeraSans-Roman-6d"/>
     <use x="419.82421875" xlink:href="#BitstreamVeraSans-Roman-61"/>
     <use x="481.103515625" xlink:href="#BitstreamVeraSans-Roman-78"/>
     <use x="540.283203125" xlink:href="#BitstreamVeraSans-Roman-69"/>
     <use x="568.06640625" xlink:href="#BitstreamVeraSans-Roman-6f"/>
     <use x="629.248046875" xlink:href="#BitstreamVeraSans-Roman-6e"/>
     <use x="692.626953125" xlink:href="#BitstreamVeraSans-Roman-2e"/>
     <use x="724.4140625" xlink:href="#BitstreamVeraSans-Roman-4b"/>
     <use x="789.990234375" xlink:href="#BitstreamVeraSans-Roman-69"/>
     <use x="817.7734375" xlink:href="#BitstreamVeraSans-Roman-6d"/>
    </g>
   </g>
  </g>
 </g>
 <defs>
  <clipPath id="p0b69ada771">
   <rect height="576.0" width="558.0" x="90.0" y="72.0"/>
  </clipPath>
 </defs>
</svg>
